<svg width="20" height="20" viewBox="0 0 20 20" fill="none" xmlns="http://www.w3.org/2000/svg">
<path d="M10.5008 18.1652C12.0508 16.8268 16.6666 12.4935 16.6666 8.33268C16.6666 6.56457 15.9642 4.86888 14.714 3.61864C13.4637 2.36839 11.768 1.66602 9.99992 1.66602C8.23181 1.66602 6.53612 2.36839 5.28587 3.61864C4.03563 4.86888 3.33325 6.56457 3.33325 8.33268C3.33325 12.4935 7.94909 16.8268 9.49909 18.1652C9.64348 18.2738 9.81925 18.3325 9.99992 18.3325C10.1806 18.3325 10.3564 18.2738 10.5008 18.1652Z" stroke="#216B4C" stroke-width="2" stroke-linecap="round" stroke-linejoin="round"/>
<path d="M10 10.834C11.3807 10.834 12.5 9.7147 12.5 8.33398C12.5 6.95327 11.3807 5.83398 10 5.83398C8.61929 5.83398 7.5 6.95327 7.5 8.33398C7.5 9.7147 8.61929 10.834 10 10.834Z" stroke="#216B4C" stroke-width="2" stroke-linecap="round" stroke-linejoin="round"/>
</svg>
