<svg width="243" height="196" viewBox="0 0 243 196" fill="none" xmlns="http://www.w3.org/2000/svg">
<path d="M77.758 4.00346C130.785 -8.50351 150.731 7.72951 166.847 60.6711C182.962 113.613 182.028 159.832 129 172.339C75.9729 184.846 19.9212 152.067 3.80545 99.1258C-12.3103 46.1842 24.7305 16.5105 77.758 4.00346Z" fill="#F6FAF9"/>
<path d="M60.5959 69.8429C60.5959 21.7074 81.7164 9 138.955 9C196.195 9 242.596 21.7074 242.596 69.8429C242.596 117.978 196.195 157 138.955 157C81.7164 157 60.5959 117.978 60.5959 69.8429Z" fill="#EEF5F2"/>
<path d="M114.768 35C115.631 35.0758 116.446 35.9073 116.792 36.6666C117.595 38.4288 117.148 39.7531 116.495 41.4282C117.939 40.5074 120.565 39.6857 122.298 39.97C124.617 40.3501 125.8 41.4312 127.137 43.2139C129.787 42.1658 133.334 43.8971 133.866 46.77C134.149 48.2994 133.719 49.3011 132.887 50.5298C135.804 54.353 134.773 57.5888 130.116 58.7299C129.934 59.1233 129.656 59.5797 129.8 59.99C130.163 60.1242 130.284 59.9411 130.814 59.892L130.906 60.0202C130.786 60.3047 130.422 60.5083 130.152 60.6995C130.1 61.011 130.78 60.8806 130.934 61.2304C130.439 61.4359 129.76 61.4103 129.203 61.4331C129.093 62.759 128.181 65.0355 127.504 66.196C126.339 68.1941 124.17 70.7121 121.816 71.3081C119.895 71.7946 118.53 70.9806 116.972 70.0567C116.57 70.5779 116.021 71.6137 115.679 72.2125C114.973 73.4254 114.278 74.6443 113.594 75.8692C115.313 77.5002 116.364 78.7189 117.452 80.87C117.95 81.8538 118.53 84.0043 118.609 84.9602C118.8 87.279 119.686 103.394 119.372 104.327C119.178 104.585 118.91 104.618 118.587 104.718C118.543 105.44 118.548 105.849 118.586 106.573C119.101 105.968 119.449 105.257 119.9 104.615C121.097 102.911 122.108 101.137 123.209 99.3836L128.758 90.5018C129.476 89.3653 130.404 87.9809 131.124 86.8524C132.026 85.4375 134.237 81.4503 135.326 80.4291C134.095 79.3123 129.213 74.6146 129.011 73.4266C128.951 73.0724 129.021 72.7644 129.251 72.4841C129.441 72.2531 129.91 72.0596 130.205 72.0613C130.844 72.0651 131.177 72.7326 131.599 73.1003C132.193 73.619 132.903 73.9778 133.469 74.5424C134.564 75.636 135.624 76.7833 136.68 77.9159C137.237 78.5126 137.774 79.1876 138.406 79.7004C138.427 79.7172 138.448 79.7334 138.469 79.7499C139.126 79.6051 140.667 79.1909 141.241 79.5233C142.401 80.1956 143.634 82.631 144.319 83.8076C144.599 84.2895 144.379 84.832 144.221 85.255C144.837 86.0492 145.923 87.1907 146.627 87.889C147.201 86.4311 154.466 73.154 155.059 72.6243C155.344 72.3699 163.302 72.529 164.429 72.5348C165.27 70.3343 165.589 70.1844 167.97 70.337C168.635 70.3797 169.467 70.3528 170.141 70.33C170.424 69.7174 170.742 68.9494 171.184 68.4258C172.139 67.2952 174.246 66.9189 175.38 68.0007C176.112 68.6997 176.056 69.4744 176.066 70.409C177.008 70.4125 178.029 70.3904 178.968 70.349C181.004 70.2591 180.86 71.0083 180.159 72.503C182.66 72.6223 188.193 72.3071 190.962 72.5054C191.024 72.563 191.086 72.6206 191.148 72.6781C191.251 73.1568 190.453 74.2737 190.215 74.7314C188.001 78.9793 185.388 83.2091 183.3 87.5053C184.639 87.5699 186.045 87.5163 187.427 87.5809C187.62 91.1026 187.548 94.7376 187.55 98.2757L187.569 110.871C187.557 112.218 187.671 116.712 187.41 117.811C186.846 118.156 166.234 117.98 163.723 118.032C163.926 118.471 164.159 118.901 164.376 119.333C165.612 121.784 165.918 124.505 166.475 127.171C167.258 130.93 167.936 134.73 168.804 138.478C172.043 138.647 175.887 138.491 179.225 138.55C175.359 139.587 173.627 141.439 172.458 145.078C171.881 146.875 170.914 147.892 171.197 149.999C173.059 146.534 173.259 141.725 177.299 139.918C178.849 139.474 180.227 138.107 181.865 138.828C188.645 141.81 185.327 147.782 183.547 152.587C180.826 159.935 178.269 167.133 175.355 174.345C176.172 175.883 181.173 180.812 182.752 182.152C184.053 183.256 186.92 184.465 187.837 186.327C188.243 187.151 188.133 187.507 187.851 188.362C187.756 188.456 187.458 188.745 187.35 188.805C186.163 189.395 183.76 189.478 182.489 189.157C178.934 188.262 175.434 186.739 171.968 185.55C170.213 184.948 168.389 184.592 166.697 183.912C164.925 183.199 164.306 181.704 164.778 179.925C164.952 179.231 165.106 178.508 165.249 177.82C164.623 177.746 162.87 177.836 162.137 177.842C160.256 177.865 158.375 177.834 156.495 177.751C156.8 179.28 157.284 180.839 157.613 182.361C158.546 186.666 159.667 190.823 160.58 195.138C164.168 195.19 200.754 195.074 200.947 195.184C201.175 195.315 201.211 195.416 201.298 195.644L201.219 195.816C200.697 196.096 196.427 195.971 195.517 195.97L186.016 196L45.2884 195.983C44.8022 195.979 44.0126 196 43.6531 195.678C43.669 195.367 43.9519 195.176 44.252 195.172C45.1741 195.16 46.0971 195.175 47.0195 195.176L52.7225 195.179C57.6564 195.152 62.5905 195.158 67.5244 195.194C67.7483 193.409 68.6716 189.839 69.1093 188.02C69.925 184.612 70.7171 181.2 71.4855 177.781C70.8708 177.781 70.2466 177.784 69.6356 177.735C65.9254 177.533 62.012 174.414 61.0084 170.8C59.7701 166.342 58.5476 161.606 57.3701 157.075C56.8755 155.102 56.3995 153.125 55.9421 151.143C55.4235 148.985 54.7906 146.857 54.249 144.703L49.6462 126.275C47.73 118.686 45.6822 111.088 43.8889 103.471C43.4155 101.172 42.4802 98.8855 42.3163 96.5379C42.0321 92.4651 45.0825 88.367 49.1725 87.714C51.8661 87.2838 55.2768 87.4868 58.0489 87.4936L72.0098 87.4889C74.571 87.4931 77.6949 87.6038 80.1918 87.4694C82.3965 83.475 88.2722 77.872 92.2556 75.5975C88.4393 73.3534 89.0513 69.8822 91.8507 67.2218C91.6882 67.0745 91.5264 66.9265 91.3655 66.7775C89.5489 65.1234 89.7403 62.9217 91.6294 61.3645C92.2199 60.8779 92.7351 60.6893 93.4327 60.3914C93.0427 59.5592 92.6958 58.532 92.9338 57.629C93.7376 54.5786 96.7446 54.5506 99.1226 54.9829C98.5202 52.9347 99.5905 51.068 101.567 50.3334C103.165 49.7399 104.393 50.0035 105.873 50.6558C106.015 48.8351 106.157 48.4306 107.475 47.1353C105.657 47.182 103.7 46.8746 102.789 45.0875L102.71 44.9288C102.523 44.5635 102.411 44.4378 102.399 44.0385C102.561 43.7892 102.451 43.8654 102.738 43.7991C103.271 44.2439 103.404 45.0048 104.086 45.577C105.214 46.5243 106.177 46.4271 107.523 46.3396C106.15 45.5375 105.155 44.8834 104.662 43.2889C103.204 38.5718 109.236 34.368 113.357 36.6564C115.173 37.6649 115.495 39.0918 116.013 40.8541C116.611 39.127 116.956 37.6076 115.505 36.1354C115.036 35.6599 114.575 35.6737 114.768 35ZM66.4251 139.204C68.1194 139.12 70.1589 139.212 71.8937 139.23C73.407 143.117 73.7776 145.04 77.0701 147.935C78.365 147.957 81.7799 148.084 82.9158 147.928C80.7093 146.208 80.1366 144.273 79.9208 141.547C79.8807 141.042 79.7282 140.305 79.9216 139.838C80.7897 139.647 91.3219 139.634 92.0049 139.831C92.2082 140.051 92.2124 140.065 92.3601 140.328C93.2377 140.787 94.7576 141.153 94.9804 142.186C95.5741 144.939 92.7339 145.747 90.7678 146.214C90.1924 146.925 89.7856 147.359 89.1371 148.009C91.609 147.933 94.0822 147.913 96.555 147.946C97.6274 147.956 99.8142 148.044 100.828 147.944C100.073 145.961 99.7593 144.537 100.672 142.528C102.081 139.421 105.509 138.329 108.548 139.81C110.915 140.89 112.081 143 112.885 145.381C114.659 150.639 116.474 155.932 118.339 161.165C119.089 163.266 119.706 164.442 121.81 165.488C122.334 165.749 122.898 165.92 123.479 165.996C125.274 166.247 129.55 166.154 131.539 166.1C131.722 166.095 131.773 165.942 131.85 165.804C131.503 165.142 130.197 165.461 129.498 165.433C126.063 165.299 122.069 166.235 119.843 162.853C119.154 161.832 118.472 159.364 118.048 158.11L115.889 151.877C116.917 151.699 118.678 151.794 119.766 151.787L131.823 151.754C132.613 151.752 137.326 151.903 137.682 151.619C137.85 151.248 137.847 151.423 137.783 151.086C137.544 150.974 117.562 151.034 115.499 151.053C115.309 150.442 115.067 149.578 114.82 149.013C116.136 147.806 118.184 146.71 119.712 145.792L126.429 141.766L142.094 132.316C144.795 130.688 147.476 129.014 150.213 127.451C150.987 127.01 151.689 126.752 152.59 126.808C154.981 126.956 157.836 128.7 159.004 130.765C162.128 136.044 158 141.62 155.821 146.481C158.192 156.382 160.927 166.194 164.023 175.896C167.61 174.966 171.484 174.148 174.849 172.497C173.981 169.296 173.508 165.698 172.818 162.448L167.259 135.051L165.529 126.641C165.17 124.903 164.894 123.131 164.375 121.41C164.13 120.602 163.364 118.708 162.613 118.177C162.432 118.049 161.607 118.011 161.341 118.011C154.469 118.015 147.587 118.016 140.715 118.016L132.295 118.015C131.038 118.014 127.777 117.845 126.789 118.318C124.42 119.451 121.988 120.423 119.603 121.5C118.609 122.994 117.761 124.534 116.874 126.089C114.607 130.061 113.003 134.854 107.949 135.904C105.446 136.429 102.836 135.933 100.703 134.528C98.5953 133.115 97.7892 131.149 96.7866 128.94C95.6695 129.508 94.4154 129.902 93.235 130.351L87.1544 132.695L87.1832 132.832C87.4411 134.008 88.1741 134.888 88.2584 136.087C88.3128 136.861 87.9855 138.133 87.1756 138.417C86.8904 138.265 87.0004 138.373 86.855 138.061C86.9323 137.859 87.4416 136.66 87.4479 136.552C87.5014 135.642 86.5877 133.919 86.2234 133.062C85.719 133.246 85.0465 133.47 84.5799 133.697C85.4575 135.085 86.7002 137.261 84.8013 138.488L84.6186 138.494C84.2861 137.973 84.8676 137.113 85.0537 136.468C84.6589 135.343 84.4187 135.017 83.6922 134.055C82.935 134.436 81.2221 134.959 80.3079 135.307L75.0355 137.321C74.4358 137.55 72.6123 138.309 72.0923 138.354C70.463 138.495 68.4919 138.47 66.8524 138.478C66.272 135.823 65.5246 133.096 64.8667 130.444L59.5658 109.546L56.7126 98.1512C56.087 95.7504 55.0389 89.8437 51.7523 89.6739C51.8497 90.086 51.9527 90.2406 52.2933 90.4965C54.7197 92.3195 55.0088 94.2039 55.6849 97.0132C56.1259 98.8591 56.5812 100.702 57.0509 102.54C59.3714 111.68 61.6146 120.865 64.0058 129.981C64.6343 132.378 65.5464 137.091 66.4251 139.204ZM163.43 74.8004L164.125 73.2016C163.37 73.1223 162.105 73.1723 161.297 73.1654L155.335 73.1278C154.728 74.7861 153.625 76.4247 152.743 77.9733C150.828 81.3348 149.035 84.8923 147.128 88.2398C147.575 88.8066 147.872 89.2768 148.258 89.8877L148.836 88.9687C149.589 88.8539 151.472 88.9239 152.304 88.9365C153.748 88.9517 155.192 88.9515 156.637 88.9358L166.542 88.9527C170.178 88.9421 174.159 88.8844 177.785 88.9733C178.07 89.0443 178.241 89.0818 178.53 89.1276L178.495 89.3141L152.631 89.3397C151.651 89.3401 150.09 89.3016 149.152 89.4348C148.896 89.9326 148.805 90.1205 148.627 90.6648C148.889 91.3846 149.16 92.1014 149.44 92.8148C149.026 92.6534 147.788 92.0529 147.582 91.9995C147.236 92.7092 146.935 93.323 146.54 94.0042C147.873 94.139 149.202 94.0443 150.545 94.039L156.128 94.0552L175.97 94.0569C176.152 94.0563 176.182 94.024 176.322 93.93L176.526 93.9925C176.343 94.2557 176.271 94.373 175.93 94.3827C174.729 94.4171 173.527 94.4079 172.325 94.4095L145.948 94.3873C146.287 93.627 146.781 92.8096 147.156 91.9939C147 91.6788 146.92 91.5996 146.638 91.4947C146.224 91.5346 146.242 91.6328 145.903 91.7943C144.379 92.5198 144.033 93.8206 143.194 95.2032C141.946 97.2563 140.863 99.4792 139.681 101.596L135.874 108.39C135.237 109.536 134.21 111.287 133.736 112.449C136.551 112.534 139.524 112.489 142.356 112.487C147.745 112.51 153.133 112.482 158.523 112.401C161.927 112.369 165.407 112.48 168.868 112.442C169.815 110.801 170.765 108.938 171.673 107.256L177.224 96.9908L185.801 81.2399C186.274 80.3684 186.787 79.557 187.26 78.6687C185.737 78.1411 183.862 78.3948 182.264 78.2001C181.983 78.1657 181.909 78.01 181.79 77.8212C181.676 76.9806 182.788 74.1601 183.114 73.2394C181.881 73.0729 180.975 73.1106 179.732 73.192C179.612 73.5881 179.443 74.4503 179.087 74.6896C178.626 74.9985 165.107 74.8289 163.43 74.8004ZM119.429 146.953C120.807 146.73 121.96 146.278 123.278 145.868C128.827 144.141 134.299 142.163 139.867 140.497C141.19 140.101 142.833 139.38 144.154 139.208C143.475 140.836 142.618 142.45 141.941 144.063C140.667 147.103 139.289 150.168 138.014 153.195L134.724 161.094C134.349 161.988 133.718 163.656 133.308 164.474C131.503 168.564 129.778 172.686 128.039 176.804C127.775 177.429 127.52 178.075 127.296 178.714C129.42 179.662 131.647 181.009 133.76 182.037C134.574 182.434 135.759 183.139 136.603 183.355C137.103 181.713 137.87 180.355 138.641 178.83L141.697 172.809L154.589 146.97C157.5 141.023 163.904 131.722 153.87 127.768C153.377 127.574 152.635 127.546 152.108 127.612C150.679 127.885 149.492 128.863 148.258 129.609L144.696 131.721L133.67 138.392L124.485 143.901C122.865 144.867 120.979 145.915 119.429 146.953ZM118.882 53.1622C118.196 54.3699 117.457 56.1616 115.989 56.5974C114.235 57.1179 114.386 53.8303 112.522 54.2713C110.373 54.7795 110.055 58.3949 111.861 59.4616C112.25 59.6913 113.137 59.5711 113.621 59.5588C113.248 61.1726 113.356 62.5545 112.98 64.1625C114.412 65.5609 115.179 67.4012 116.861 68.9437C120.539 71.9009 122.803 70.8334 125.683 67.4801C127.356 65.5329 128.246 63.0858 128.606 60.5572C128.219 61.0199 127.864 61.5895 127.182 61.2191C127.003 61.0078 126.915 60.8972 126.923 60.5964C126.928 60.2778 127.093 59.9827 127.361 59.8102C127.878 59.4725 128.373 59.7721 128.857 60.0003L129.459 58.5838L129.355 58.5199C128.474 57.9874 127.609 58.1462 127.123 57.6693L127.189 57.4844L127.104 57.6385C127.682 57.0222 128.979 57.5031 129.665 57.7229C130.145 56.2401 130.246 55.6484 130.208 54.1049C128.509 52.8268 128.619 52.6241 127.63 50.8766C125.368 54.0965 122.433 54.3906 118.882 53.1622ZM140.377 190.191C142.09 190.745 144.251 190.395 145.34 192.33C145.874 193.28 145.725 194.14 145.53 195.143C148.009 195.181 150.488 195.189 152.966 195.165C154.247 195.187 155.529 195.193 156.812 195.182C155.329 191.147 153.632 187.203 152.152 183.168C151.492 181.371 150.676 179.662 150.058 177.833C146.883 177.726 143.203 177.999 140.077 177.773C139.103 179.671 138.111 181.564 137.239 183.51C137.074 183.88 136.541 184.13 136.745 184.478C137.333 185.664 138.125 186.796 138.846 187.911C139.33 188.659 139.848 189.486 140.377 190.191ZM87.18 191.765C89.3532 192.467 91.6468 192.95 93.8495 193.568C95.1312 193.929 95.5091 194.09 96.2037 195.182L98.239 195.205C98.5401 194.083 98.7834 193.008 99.0524 191.881C99.5306 190.307 99.9798 188.133 100.352 186.48C100.99 183.647 101.805 180.617 102.393 177.797C97.4905 177.716 92.0026 178.137 87.1591 177.768L87.18 191.765ZM102.076 195.183L111.538 195.184C113.906 195.179 116.273 195.184 118.64 195.202C117.109 191.786 115.635 187.816 114.276 184.289L112.721 180.186C112.444 179.463 112.062 178.598 111.841 177.874C111.03 177.826 109.704 177.842 109.01 177.766C108.123 179.617 107.492 181.606 106.735 183.499C105.172 187.414 103.69 191.291 102.076 195.183ZM138.417 190.582L139.576 190.332C138.683 189.173 137.905 187.971 137.18 186.702C136.674 185.819 136.213 184.716 135.544 183.952C135.045 183.382 129.05 180.408 127.863 179.839C127.495 180.333 126.976 180.989 126.7 181.515C128.123 184.588 133.384 188.922 136.532 190.367C137.149 190.651 137.753 190.622 138.417 190.582ZM126.932 117.422C126.886 116.233 126.717 114.66 126.964 113.487C127.055 113.055 127.416 112.78 127.762 112.518C128.836 112.492 130.91 112.518 131.873 112.399L131.966 112.269C132.422 111.642 134.036 110.053 134.204 109.768C135.145 108.171 142.996 94.3099 143.09 93.7687C142.97 93.5327 142.869 93.5068 142.638 93.365C142.744 92.6737 145.304 91.374 145.944 90.818C145.761 90.6748 144.741 89.8609 144.594 89.7933C143.813 90.1397 142.07 90.8019 141.502 91.3511C139.922 92.8795 139.339 96.5234 137.888 98.0048C135.518 100.424 132.671 102.702 130.208 105.054C129.06 106.152 127.756 107.154 126.734 108.392C126.225 109.074 125.269 111.008 124.791 111.849C123.764 113.655 122.76 115.475 121.777 117.306C121.308 118.166 120.556 119.388 120.22 120.26L120.171 120.389C120.777 120.217 121.15 120.116 121.726 119.861C123.038 119.013 125.462 118.213 126.932 117.422ZM72.6301 137.364C73.0404 137.18 73.5663 136.999 73.902 136.699C75.6007 135.181 92.8417 118.038 93.0172 117.517C93.1042 117.259 92.987 117.113 92.878 116.889L76.1512 133.536C75.3582 134.321 72.9877 136.413 72.5209 137.316L72.6025 137.373L72.6301 137.364ZM71.1336 134.79C72.526 133.514 73.5549 132.402 74.8678 131.088L80.4563 125.545C81.663 124.35 91.5101 114.809 91.8411 114.049C91.8301 113.764 91.8698 113.845 91.7536 113.614C90.8421 114.17 89.0003 116.136 88.1437 116.995L83.4324 121.695C82.0243 123.11 71.1123 133.773 70.9843 134.202C71.0131 134.49 70.9977 134.528 71.1336 134.79ZM133.297 95.0292C135.923 94.4631 136.955 92.4156 137.106 89.9634C137.182 88.7256 137.422 87.8231 138.805 87.6498C139.236 87.5861 139.749 87.412 140.162 87.6532C140.085 88.1878 139.096 89.0654 139.144 89.7788C139.918 90.3704 141.838 87.7436 141.852 86.8204C141.277 85.6354 138.573 86.7402 137.799 86.2016L137.786 85.9919C138.497 85.2337 141.81 86.2638 141.794 84.7318C141.014 83.6888 138.254 84.7454 137.517 84.1567L137.523 84.0008C138.235 83.4506 141.295 84.0473 141.499 83.2496C140.878 81.823 138.692 82.9475 138.015 82.312C138.143 82.0049 138.098 82.0774 138.397 81.8768C138.726 81.6567 141.184 81.6482 141.376 81.8409C141.839 82.3041 142.729 84.0951 143.469 84.3771L143.55 84.2936C143.529 83.7832 143.34 83.3788 143.027 82.9805C142.222 81.9602 141.6 79.9673 140.05 80.1534L139.939 80.1858C138.924 80.4707 136.064 80.7947 135.556 81.3977C134.398 82.7725 132.975 85.2987 131.96 86.854C127.479 93.8762 123.067 100.943 118.728 108.053C115.722 112.882 112.539 117.617 109.648 122.522C109.387 122.966 108.89 123.911 108.371 123.98C107.703 123.179 103.947 109.911 103.654 108.285C102.742 108.481 101.67 108.944 100.773 109.268L96.9148 110.62C95.4103 111.153 93.5848 111.635 92.1996 112.325C93.8588 116.471 94.9155 121.102 96.5154 125.309C97.6577 128.313 97.652 131.306 100.535 133.392C102.514 134.936 104.348 135.633 106.907 135.327C109.176 135.043 111.236 133.864 112.626 132.056C113.29 131.197 114.224 129.344 114.782 128.325L118.473 121.581C121.158 116.629 124.036 111.678 126.758 106.727C128.155 104.149 129.579 101.585 131.027 99.0347C131.775 97.6967 132.46 96.3168 133.297 95.0292ZM109.399 111.789C108.89 112.842 108.621 113.891 108.241 114.84C107.008 117.923 107.232 118.5 108.159 121.589C108.223 121.801 108.326 122.009 108.429 122.209L108.612 122.395C109.105 122.214 109.71 120.931 109.983 120.427C109.95 119.227 109.758 112.51 109.399 111.789ZM188.561 76.2514C189.144 75.1888 189.663 74.2405 190.317 73.2197C188.28 73.0898 186.033 73.1236 183.978 73.1285C184.141 73.6023 187.157 77.5089 187.626 77.9255C187.946 77.372 188.258 76.814 188.561 76.2514ZM75.4204 195.161C79.1115 195.189 82.8027 195.195 86.4939 195.182C87.4457 195.181 94.8844 195.243 95.1551 195.133L95.1728 194.99C94.5279 194.26 94.0187 194.514 93.2065 194.203C91.1594 193.422 88.4069 193.177 86.429 192.384C86.3264 191.246 86.3918 189.494 86.3979 188.307L86.4007 161.654C86.3998 158.703 86.5044 154.943 86.4019 152.071C85.7507 152.035 85.1412 151.994 84.4883 152.012L84.35 152.119C84.2801 154.798 84.3435 157.59 84.3454 160.285L84.3558 176.202L84.3299 186.369C84.3208 188.186 84.2418 190.628 84.3587 192.396C81.9748 193.294 77.3857 193.745 75.4204 195.161ZM79.8069 134.756C80.1253 134.615 81.2731 134.124 81.447 133.938C84.9459 130.187 88.7233 126.67 92.3352 123.018C92.9047 122.442 94.7099 121.168 94.0958 120.446C92.383 121.956 90.934 123.461 89.3439 125.071L83.8241 130.638C83.2816 131.19 79.7898 134.332 79.7554 134.734L79.8069 134.756ZM144.235 89.2881C143.765 88.7825 143.118 88.0437 142.609 87.6136C141.561 88.6131 141.025 90.4974 139.335 90.5514C138.66 90.573 138.24 90.446 137.975 89.819C137.828 90.3097 137.76 90.9279 137.644 91.4395C137.121 93.7466 135.882 94.8629 133.756 95.6994C132.569 97.6472 131.457 99.648 130.417 101.679C130.078 102.342 128.326 104.948 128.368 105.464C128.676 105.425 128.54 105.446 128.837 105.224C130.327 103.943 131.757 102.639 133.197 101.308C134.611 100.002 136.135 98.7795 137.431 97.3573C138.828 95.68 139.522 91.9178 141.455 90.5443C142.092 90.0924 143.445 89.7122 144.235 89.2881ZM100.505 148.736C97.566 148.854 93.9622 148.781 90.9901 148.774L76.5963 148.775C74.2617 148.776 70.7489 148.655 68.5457 148.8C68.3538 150.897 68.106 151.437 70.4382 151.237L91.2888 151.225C94.2333 151.236 97.1765 151.196 100.12 151.269C100.815 151.286 101.507 151.282 102.201 151.254C102.232 150.439 102.249 149.624 102.254 148.809C101.666 148.756 101.092 148.681 100.505 148.736ZM159.933 166.175C160.154 165.921 160.108 166.063 160.094 165.742C159.87 165.489 159.784 165.424 159.388 165.423C157.952 165.417 156.509 165.456 155.071 165.456C152.146 165.462 149.219 165.436 146.294 165.378C146.175 165.625 146.017 165.858 146.054 166.112C148.993 166.147 151.933 166.158 154.872 166.146C156.433 166.155 158.408 166.247 159.933 166.175ZM92.7837 144.8C94.696 143.648 94.6875 141.639 92.2037 141.568C91.9865 142.798 91.7623 143.984 91.3187 145.158C91.9831 145.063 92.1466 145.025 92.7837 144.8ZM89.6103 106.575C88.0523 107.647 86.5859 109.266 85.2354 110.623L79.7198 116.151L73.5702 122.246C72.5999 123.209 70.3918 125.067 70.047 126.268L70.1206 126.393C70.6946 126.23 73.8997 122.839 74.5512 122.185L80.6667 116.076C83.6303 113.084 86.7688 110.145 89.7117 107.12C90.0108 108.047 90.3185 108.966 90.5635 109.909L75.8582 124.569C74.0687 126.332 72.1555 128.125 70.3759 129.896L70.3485 130.849C72.2535 129.285 75.1321 126.269 76.9601 124.446L86.8358 114.677C87.6462 113.874 90.1379 111.148 90.8739 110.768C91.3896 110.977 91.0956 111.755 91.8379 111.952C92.0976 110.953 86.9855 97.2235 86.5556 95.212C86.4675 94.7995 85.801 92.4784 85.6154 92.0938L85.5024 92.0322C85.1382 92.2605 81.9143 95.5502 81.4054 96.0557L75.2757 102.144C74.1316 103.283 72.9848 104.418 71.8694 105.585C71.5192 105.951 71.4876 106.45 71.4173 106.928C74.627 103.695 77.8585 100.485 81.1116 97.2958C81.8765 96.5398 84.6434 93.6825 85.323 93.236C85.6894 94.2868 85.846 94.9533 86.0131 96.0597C82.4847 99.4518 78.9997 102.888 75.5593 106.369L72.4879 109.42C71.7492 110.152 70.501 111.108 70.3993 112.139L70.4439 112.262C70.9576 112.15 84.737 98.3453 86.2775 96.6711C86.5654 97.5344 86.9814 98.5989 87.2221 99.4364C83.2858 103.286 79.3895 107.175 75.5338 111.105C73.791 112.86 71.932 114.531 70.2861 116.371C70.0148 116.675 69.9672 116.871 69.9773 117.279L70.0809 117.368C70.3411 117.245 86.3732 101.472 87.4537 100.121C87.706 101.056 88.1096 101.955 88.3282 102.816C87.8347 103.539 86.5073 104.607 85.8316 105.31C82.4158 108.865 78.7699 112.284 75.3323 115.824C74.3169 116.869 70.8935 119.929 70.2717 120.984C69.934 121.526 69.7856 121.793 69.5235 122.373C70.8573 121.424 72.0404 120.151 73.2031 118.993L78.644 113.532L84.9897 107.283C86.0626 106.221 87.6494 104.715 88.5781 103.587C89.0121 104.572 89.2673 105.562 89.6103 106.575ZM95.1449 128.814C95.6487 128.619 96.169 128.463 96.5845 128.132C96.7191 127.789 96.4972 127.598 96.1729 127.459C95.7755 127.791 95.114 128.385 94.8877 128.855C95.0961 128.846 95.013 128.871 95.1449 128.814ZM130.821 74.18C131.222 73.2814 130.796 72.7934 129.852 72.7974C129.655 73.466 129.706 73.8888 130.47 74.0982C130.586 74.129 130.703 74.1562 130.821 74.18ZM106.756 51.1121C106.998 50.8952 107.007 50.6806 107.025 50.3592L107.032 50.1936C107.09 49.1584 107.868 48.2208 107.859 47.7879C106.785 48.7541 106.377 49.6702 106.756 51.1121ZM185.862 77.9593C186.218 77.9966 186.45 78.0804 186.739 77.9512C186.415 77.2692 183.987 74.1037 183.366 73.5426C182.981 74.9086 182.542 76.1804 182.431 77.5904C183.028 77.6296 185.308 77.829 185.862 77.9593ZM113.435 105.08C113.907 104.724 114.268 104.158 114.587 103.649C117.095 99.6425 115.704 94.6562 115.29 90.3028C115.285 90.2526 115.166 90.159 115.127 90.1253C114.547 91.1863 115.545 97.5324 115.374 99.5194C115.17 101.887 113.4 103.694 113.191 104.899C113.328 105.084 113.241 105.032 113.435 105.08ZM173.69 70.3285C174.545 69.4977 174.187 68.7557 172.99 68.7792C172.674 69.1914 172.509 69.4117 172.569 69.9399C172.885 70.4439 173.12 70.4038 173.69 70.3285ZM121.943 40.6733C122.343 40.8801 124.798 41.9396 125.1 41.9875C124.219 41.2565 123.11 40.6877 121.943 40.6733ZM175.321 181.763C177.511 182.597 179.358 183.461 181.63 182.488C179.473 180.306 177.164 178.102 175.283 175.674C175.012 175.327 174.195 174.059 173.95 173.848C171.541 174.858 168.961 175.318 166.595 176.165C166.572 176.608 166.481 177.145 166.823 177.424C168.914 179.137 172.84 180.612 175.321 181.763ZM153.726 151.068C153.329 151.209 153.466 151.084 153.283 151.432C153.375 152.117 155.313 151.764 155.981 151.81L156.147 151.869L156.244 151.743C156.195 151.42 156.218 151.425 156.028 151.166C155.292 150.95 154.502 151.109 153.726 151.068ZM101.654 152.042C102.108 153.57 102.787 155.138 103.334 156.65L106.135 164.437C107.862 169.127 108.906 174.458 113.828 177.018C114.716 177.481 115.107 177.646 116.095 177.435L116.078 177.164C115.801 176.976 115.227 176.839 114.885 176.713C109.805 174.842 108.557 169.08 106.944 164.589L102.691 152.721C102.457 152.05 102.461 152.085 101.654 152.042ZM102.028 50.8798C101.386 51.1359 101.222 51.2325 100.658 51.665C99.6071 52.4713 99.1219 54.4695 100.112 55.5088L100.137 55.3385C100.415 53.2619 100.049 52.2393 102.281 50.9268C102.173 50.8999 102.137 50.8813 102.028 50.8798ZM77.9996 177.764C76.4187 182.471 74.2667 187.096 72.5941 191.786C72.185 192.933 71.5883 194.05 71.1822 195.201C72.2722 195.23 73.3628 195.224 74.4524 195.184C74.811 194.637 75.0679 194.316 75.6187 193.944C77.274 193.419 79.0881 193.025 80.77 192.543C81.5831 192.31 82.7236 192.153 83.4803 191.836C83.5866 190.173 83.5341 188.125 83.5309 186.439L83.4816 177.81C81.7088 177.845 79.7699 177.847 77.9996 177.764ZM90.5034 70.7417C90.258 71.6968 90.302 72.6046 90.8084 73.4761C91.2149 74.1878 91.896 74.703 92.6935 74.9021C93.0446 74.9886 93.347 74.9183 93.6898 74.8328L93.7237 74.6836C92.1778 73.9394 91.4115 73.4919 90.8427 71.7735C90.7579 71.517 90.6398 70.9072 90.5034 70.7417ZM131.996 193.537C130.437 192.283 128.812 191.092 127.274 189.818C125.772 188.573 123.722 187.55 123.318 185.529C123.856 183.36 125.759 181.491 127.031 179.545C126.43 178.935 126.525 178.728 126.65 177.906C125.746 177.795 124.379 177.843 123.433 177.843L118.25 177.843C118.827 180.092 119.267 182.425 119.801 184.71C120.599 188.122 121.666 191.79 122.355 195.212C126.213 195.116 130.32 195.296 134.118 195.151C133.414 194.614 132.706 194.064 131.996 193.537ZM94.0211 60.0169C94.1159 59.4971 94.2348 58.9317 94.2847 58.4097C94.4526 57.4724 94.8615 57.1943 95.4861 56.6454C96.3925 55.8489 98.412 55.933 98.8181 55.6788C98.5099 55.3683 97.5456 55.3247 97.1009 55.3368C94.485 55.5024 92.6306 57.4474 94.0211 60.0169ZM95.1872 123.803C94.6692 124.505 93.8941 125.055 93.2845 125.685C91.4809 127.551 89.6683 129.397 87.7547 131.151C87.6226 131.272 87.5127 131.451 87.499 131.631L87.5605 131.684C87.7038 131.668 88.2232 131.618 88.3138 131.534C90.4409 129.577 92.4156 127.437 94.5427 125.471C94.837 125.198 95.2514 124.806 95.3487 124.418C95.3037 124.137 95.3081 124.063 95.1872 123.803ZM117.369 104.913C114.568 105.576 112.723 105.117 111.242 107.833C111.028 108.227 110.234 109.521 110.244 109.918C110.298 112.041 110.428 117.154 110.791 119.034C111.433 118.634 116.975 109.219 117.718 107.836C117.856 107.579 117.769 105.505 117.748 104.987L117.646 104.896L117.369 104.913ZM104.27 73.2133C104.932 74.9952 106.67 77.7307 108.3 78.7177C109.191 79.465 110.716 80.4918 111.883 80.3741C113.94 80.167 112.794 77.1651 112.616 76.1493C113.112 74.9948 114.172 73.262 114.826 72.1502C114.42 71.1195 112.922 64.6261 112.675 64.3782C111.32 65.7428 111.535 65.5168 109.906 66.2876C110.148 68.0981 110.352 69.8129 109.126 71.3828C107.938 72.9059 106.086 73.2125 104.27 73.2133ZM103.946 107.893C104.038 107.627 104.05 107.53 103.982 107.245C103.218 104.052 102.163 100.925 101.291 97.77C100.499 94.7942 99.6693 91.8286 98.8013 88.874C97.5193 84.3668 97.0835 80.1538 91.2216 80.3643C91.2824 80.752 91.1891 80.616 91.4367 80.8297C91.8632 80.8911 93.053 81.0117 93.3841 81.1424C94.8736 81.7307 96.5511 83.4123 97.0092 84.9273C97.6169 86.936 98.074 88.943 98.6277 90.9391L102.341 103.911C102.495 104.433 103.37 107.529 103.563 107.867C103.702 107.881 103.806 107.896 103.946 107.893ZM73.5488 100.226L80.8851 92.8337C81.6328 92.0859 84.3143 89.7348 84.64 88.872C84.5526 88.6077 84.6339 88.678 84.4549 88.5685C83.0162 89.7618 81.7982 90.9931 80.4771 92.3104C78.2631 94.518 75.9881 96.6792 73.8564 98.9653C73.5196 99.3265 73.3161 99.7674 73.4778 100.254L73.5488 100.226Z" fill="#28865F" fill-opacity="0.8"/>
<path d="M152.509 83.2389C153.966 83.0739 156.563 83.2718 158.136 83.2459C162.927 83.1672 167.847 83.3296 172.627 83.2202C172.23 83.8912 170.835 86.5355 170.359 86.781C169.197 86.6839 166.701 86.7961 165.427 86.7987L155.353 86.7999C154.324 86.8032 151.167 86.9101 150.313 86.6295C150.343 86.4339 150.905 85.4546 151.05 85.2119C151.436 84.5647 151.673 83.284 152.509 83.2389ZM152.26 83.5212C151.78 84.4618 151.317 85.4104 150.87 86.3667C151.93 86.3231 153.195 86.3788 154.29 86.3771L162.357 86.3941C164.522 86.4126 168.316 86.2927 170.34 86.4669C170.615 86.1581 171.761 84.0814 172.081 83.5551C165.959 83.462 159.829 83.5857 153.712 83.5006L152.26 83.5212Z" fill="#28865F" fill-opacity="0.8"/>
<path d="M157.853 84.0352L167.904 84.0767C167.968 84.6405 167.956 85.2 167.959 85.7679L152.541 85.7704C152.662 85.2027 152.799 84.6272 152.927 84.06C154.492 84.0786 156.308 84.1054 157.853 84.0352Z" fill="#28865F" fill-opacity="0.8"/>
<path d="M152.509 83.2389C153.966 83.0739 156.563 83.2718 158.136 83.2459C162.927 83.1672 167.847 83.3296 172.627 83.2202C172.23 83.8912 170.835 86.5355 170.359 86.781L170.34 86.4669C170.615 86.1581 171.761 84.0814 172.081 83.5551C165.959 83.462 159.829 83.5857 153.712 83.5006C153.307 83.205 153.071 83.569 152.509 83.2389Z" fill="#28865F" fill-opacity="0.8"/>
<path d="M144.708 96.8466C146.324 96.968 147.957 96.8883 149.579 96.884C151.953 96.8779 154.325 96.9153 156.7 96.9C157.248 96.8965 157.867 96.8749 158.399 96.9743C158.334 97.5587 157.169 99.3729 156.812 99.9682C156.354 100.249 144.317 100.111 142.795 100.125C143.195 99.3739 144.192 97.2646 144.708 96.8466ZM143.336 99.7381L151.852 99.7396C152.611 99.7417 156.305 99.8942 156.681 99.5337L157.892 97.3141C154.081 97.2434 150.268 97.2769 146.457 97.2613C145.883 97.259 145.209 97.1772 144.658 97.2022C144.198 98.0328 143.793 98.9393 143.336 99.7381Z" fill="#28865F" fill-opacity="0.8"/>
<path d="M155.813 97.7422C155.966 97.9018 155.908 99.0113 155.906 99.2896C153.113 99.4469 148.789 99.3115 145.912 99.2944C145.72 99.3557 145.702 99.3615 145.503 99.3811C145.087 98.9066 145.461 97.8079 145.844 97.7876C149.155 97.6125 152.496 97.8316 155.813 97.7422Z" fill="#28865F" fill-opacity="0.8"/>
<path d="M164.299 96.8819C165.423 96.7843 167.323 96.8763 168.502 96.8928C170.698 96.9326 172.896 96.9111 175.092 96.8285C172.86 100.113 174.424 100.181 170.101 100.111C168.83 100.111 160.109 100.279 159.618 99.9395C159.613 99.4001 160.693 97.6176 161.021 96.9061C162.065 96.9046 163.273 96.9405 164.299 96.8819ZM170.777 99.704C171.496 99.7868 172.408 99.7571 173.146 99.7541C173.54 99.0956 174.003 98.0245 174.339 97.3035C173.712 97.2902 172.306 97.1601 171.884 97.5056C171.739 98.0144 171.063 99.2374 170.777 99.704ZM168.201 99.6514C168.778 99.6706 170.062 99.7878 170.537 99.6301C170.702 99.1181 171.388 97.8887 171.669 97.3621C170.875 97.2704 170.097 97.3134 169.299 97.336C169 98.0408 168.603 98.9984 168.201 99.6514ZM161.007 98.1526C161.164 98.5035 161.17 98.5112 161.235 98.8859C161.728 98.396 162.119 97.9933 162.768 97.704L162.842 97.7786C162.603 98.2025 161.693 99.2373 161.225 99.3203C160.952 99.0612 160.858 98.6724 160.728 98.3095C160.454 98.7827 160.347 99.1642 160.177 99.6765C160.906 99.7644 161.634 99.738 162.369 99.7297C162.792 98.8115 163.058 98.0964 163.698 97.3103C162.871 97.3263 161.899 97.1318 161.231 97.4371C161.017 97.677 161.038 97.8291 161.007 98.1526ZM164.89 99.61C165.49 98.9468 165.779 98.0628 166.311 97.3133L164.097 97.318C163.357 98.2967 163.268 98.6016 162.777 99.7217C163.441 99.7329 164.256 99.7819 164.89 99.61Z" fill="#28865F" fill-opacity="0.8"/>
<path d="M161.235 98.8859C161.728 98.396 162.119 97.9933 162.768 97.704L162.842 97.7786C162.603 98.2025 161.693 99.2373 161.225 99.3203C160.952 99.0612 160.858 98.6724 160.728 98.3095L161.007 98.1526C161.164 98.5035 161.17 98.5112 161.235 98.8859Z" fill="#28865F" fill-opacity="0.8"/>
<path d="M171.669 97.3621L171.884 97.5056C171.739 98.0144 171.063 99.2374 170.777 99.704L170.537 99.6301C170.702 99.1181 171.388 97.8887 171.669 97.3621Z" fill="#28865F" fill-opacity="0.8"/>
<path d="M173.63 83.2478C176.354 83.2389 179.635 83.1505 182.318 83.2862C181.921 83.8784 180.897 85.9947 180.525 86.7198C178.071 86.6837 174.364 86.9846 172.007 86.7567L171.951 86.6228C172.115 85.9478 173.174 83.762 173.63 83.2478ZM172.329 86.3516C173.199 86.4253 174.184 86.4435 175.062 86.4232C176.783 86.3834 178.624 86.5376 180.328 86.4261C180.865 85.3499 181.313 84.5636 181.891 83.5231L173.787 83.5201C173.24 84.4331 172.894 85.3934 172.329 86.3516Z" fill="#28865F" fill-opacity="0.8"/>
<path d="M174.008 84.0684C175.5 84.2809 178.65 83.9447 179.842 84.2052C180.215 84.6092 180.111 85.2033 180.103 85.7815C178.749 85.7449 175.211 85.7168 173.961 85.8499C173.952 85.2261 173.976 84.6919 174.008 84.0684Z" fill="#28865F" fill-opacity="0.8"/>
<path d="M156.8 74.9121C157.553 74.8911 161.239 74.7782 161.697 75.0019C161.512 75.6526 159.552 79.0388 159.108 79.8133C158.52 79.9415 154.875 79.8719 154.146 79.8658C154.638 78.9026 156.2 75.4839 156.8 74.9121ZM154.728 79.475C156.117 79.5738 157.491 79.4503 158.82 79.5603C159.408 78.6513 160.786 76.251 161.156 75.2838C159.756 75.2633 158.375 75.2363 156.976 75.2698C156.503 75.8655 154.952 78.7487 154.728 79.475Z" fill="#28865F" fill-opacity="0.8"/>
<path d="M159.834 75.8753L160.132 75.958L160.16 76.0956C159.782 76.8173 158.29 77.9197 157.652 78.5071C157.345 78.7897 157.234 78.7388 156.882 78.7085C156.676 78.3096 156.31 77.7411 156.577 77.3492C156.874 77.2493 157.222 77.4201 157.54 77.5272C158.151 77.1977 159.21 76.333 159.834 75.8753Z" fill="#28865F" fill-opacity="0.8"/>
<path d="M141.976 101.727C142.742 101.651 144.372 101.724 145.195 101.735C147.024 101.76 148.851 101.762 150.68 101.742L165.307 101.739C166.325 101.739 171.738 101.563 172.144 101.857L172.164 102.064C171.255 102.106 170.268 102.134 169.36 102.129C160.366 102.082 151.239 102.363 142.258 102.148C141.967 101.949 142.062 102.082 141.976 101.727Z" fill="#28865F" fill-opacity="0.8"/>
<path d="M145.613 103.445C150.624 103.362 155.683 103.51 160.697 103.435C162.04 103.415 170.275 103.284 171.106 103.683C170.318 103.915 168.332 103.862 167.442 103.862L149.029 103.869C147.954 103.87 142.021 103.936 141.311 103.757L141.301 103.624C141.651 103.413 144.874 103.473 145.613 103.445Z" fill="#28865F" fill-opacity="0.8"/>
<path d="M157.821 108.893C158.538 108.406 160.249 106.865 160.794 106.757L160.935 106.861C160.966 107.524 160.426 108.228 160.071 108.808L160.073 108.976L160.322 109.156L159.878 109.501L159.359 110.285C161.815 110.283 165.254 110.407 167.621 110.3L167.601 110.374C166.119 110.847 161.148 110.647 159.363 110.613C158.818 111.079 157.56 112.255 156.779 111.763C156.521 111.376 156.667 111.014 156.823 110.615C156.943 110.51 156.945 110.468 157.032 110.323C157.67 109.91 158.691 109.238 159.424 109.024C159.619 108.688 159.667 108.739 159.626 108.437C159.284 108.389 158.551 108.862 158.209 109.055L157.821 108.893ZM158.99 110.294C159.179 110.028 159.592 109.496 159.68 109.214C159.149 109.328 157.992 109.77 157.769 110.279C158.202 110.268 158.555 110.248 158.99 110.294Z" fill="#28865F" fill-opacity="0.8"/>
<path d="M157.821 108.893C158.538 108.406 160.249 106.865 160.794 106.757L160.935 106.861C160.966 107.524 160.426 108.228 160.071 108.808L160.073 108.976L160.322 109.156L159.878 109.501L159.68 109.214L159.424 109.024C159.619 108.688 159.667 108.739 159.626 108.437C159.284 108.389 158.551 108.862 158.209 109.055L157.821 108.893Z" fill="#28865F" fill-opacity="0.8"/>
<path d="M163.945 76.3555C165.358 76.3027 177.271 76.1904 177.783 76.4957L177.693 76.6376L177.398 76.6869C174.253 76.7762 171.106 76.8183 167.959 76.8132C166.762 76.8185 165.401 76.8359 164.195 76.7894C163.959 76.7803 163.953 76.7081 163.867 76.5807L163.945 76.3555Z" fill="#28865F" fill-opacity="0.8"/>
<path d="M158.209 109.055C157.01 109.805 154.714 110.645 155.669 108.069C156.202 106.632 158.871 103.968 160.518 104.73C160.762 104.844 160.776 104.957 160.843 105.182C160.698 106.091 159.537 107.312 158.632 107.423C158.938 106.877 160.932 105.807 160.401 105.086C158.665 104.488 154.869 108.197 156.249 109.34C156.89 109.496 157.237 109.207 157.821 108.893L158.209 109.055Z" fill="#28865F" fill-opacity="0.8"/>
<path d="M149.944 87.858C150.836 87.8305 160.95 87.8432 161.097 87.892L161.138 88.0504L160.97 88.2516C157.385 88.4384 153.547 88.2559 149.943 88.252C149.647 88.2517 149.661 88.2125 149.511 88.0202C149.716 87.8815 149.7 87.8846 149.944 87.858Z" fill="#28865F" fill-opacity="0.8"/>
<path d="M164.742 77.5325C167.933 77.438 171.216 77.563 174.415 77.4968C174.767 77.4896 175.384 77.476 175.641 77.7307L175.566 77.9063C174.453 77.9864 165.06 78.0285 164.813 77.8797L164.742 77.5325Z" fill="#28865F" fill-opacity="0.8"/>
<path d="M140.4 105.294C141.211 105.41 142.954 105.361 143.824 105.36L150.074 105.344C150.651 105.343 152.416 105.303 152.88 105.424L152.958 105.714C150.554 105.873 143.361 105.717 140.553 105.686C140.467 105.685 140.437 105.432 140.4 105.294Z" fill="#28865F" fill-opacity="0.8"/>
<path d="M156.795 81.9722C157.921 81.947 162.831 81.8704 163.759 82.1108L163.779 82.2067C163.284 82.498 160.735 82.4655 160.002 82.4804L155.657 82.4143C155.38 82.4121 153.249 82.4597 153.14 82.4335C153.075 82.1802 153.062 82.3003 153.192 82.0628C153.818 81.9427 156.011 81.9775 156.795 81.9722Z" fill="#28865F" fill-opacity="0.8"/>
<path d="M146.457 95.5625C146.93 95.4714 148.471 95.5971 149.075 95.6003C150.53 95.608 152.003 95.5673 153.455 95.6104C153.741 95.6188 154.197 95.6453 154.428 95.7981L154.444 95.9317C154.192 96.0517 153.613 96.0136 153.305 96.0136C152.114 96.0601 146.487 96.1283 145.543 95.9246L145.531 95.7945C145.847 95.5327 146.017 95.5776 146.457 95.5625Z" fill="#28865F" fill-opacity="0.8"/>
<path d="M137.474 110.276C139.697 110.418 142.381 110.22 144.655 110.324C145.157 110.347 146.166 110.256 146.576 110.367L146.367 110.557C145.708 110.679 137.893 110.706 137.509 110.565L137.474 110.276Z" fill="#28865F" fill-opacity="0.8"/>
<path d="M166.37 78.8527C167.433 78.8431 173.046 78.6163 173.593 79.0518L173.5 79.1692L173.256 79.1985C172.062 79.2168 166.877 79.3323 166.108 79.1068L166.065 78.9705L166.37 78.8527Z" fill="#28865F" fill-opacity="0.8"/>
<path d="M164.104 108.562C164.396 108.307 164.787 107.905 165.139 107.813C165.386 107.862 165.808 108.012 165.99 107.986C166.563 107.903 169.161 106.265 169.508 106.682C169.28 106.878 166.372 108.226 165.911 108.281C165.831 108.29 165.284 108.156 165.155 108.123C164.714 108.471 164.443 108.875 163.994 109.027L163.853 108.986C163.724 108.463 163.981 108.318 163.802 107.962C163.587 108.007 163.656 107.984 163.451 108.104L163.251 107.881L164.215 107.314L164.104 108.562Z" fill="#28865F" fill-opacity="0.8"/>
<path d="M163.566 95.6661C164.539 95.5899 167.805 95.5331 168.64 95.8164L168.534 95.8899L168.458 95.8066L168.564 95.8304L168.475 95.9119L168.46 95.8219L168.379 95.9316C167.931 96.0275 167.28 96.0053 166.806 96.01C166.121 96.0775 162.732 96.071 162.138 95.946L162.098 95.8563C162.623 95.6126 162.965 95.6745 163.566 95.6661Z" fill="#28865F" fill-opacity="0.8"/>
<path d="M177.344 81.9724C177.901 81.8863 179.933 81.9094 180.325 82.217C179.945 82.5194 178.449 82.4132 177.893 82.3999C177.271 82.3999 174.991 82.4623 174.598 82.1658L174.742 82.2233L174.834 82.0878C175.695 81.9354 176.474 81.9678 177.344 81.9724Z" fill="#28865F" fill-opacity="0.8"/>
<path d="M161.726 107.687C162.008 107.51 162.178 107.364 162.507 107.331C163.026 107.754 162.371 108.388 163.251 107.881L163.451 108.104C163.086 108.394 162.5 108.996 162.041 108.9C161.848 108.541 161.929 108.491 161.948 108.011C161.87 107.955 161.785 107.784 161.726 107.687Z" fill="#28865F" fill-opacity="0.8"/>
<path d="M156.823 110.615C156.08 110.644 155.295 110.538 154.563 110.655C154.178 110.716 154.247 110.745 154.019 110.594L154.045 110.416C154.512 110.103 156.286 110.312 157.032 110.323C156.945 110.468 156.943 110.51 156.823 110.615Z" fill="#28865F" fill-opacity="0.8"/>
<path d="M160.071 108.808C160.442 108.764 161.373 107.96 161.726 107.687C161.785 107.784 161.87 107.955 161.948 108.011L160.322 109.156L160.073 108.976L160.071 108.808Z" fill="#28865F" fill-opacity="0.8"/>
<path d="M119.009 63.6833C119.956 63.7486 121.966 65.4797 123.1 65.6612C123.511 65.7269 124.573 65.9962 124.73 66.3983C124.613 66.7029 124.4 66.824 124.141 67.0337C123.412 67.4605 122.991 67.7005 122.096 67.6383C120.266 67.5113 118.876 65.4069 119.009 63.6833ZM123.201 66.8607L123.298 66.6086C122.963 66.2448 120.43 65.1551 119.846 65.006C120.327 66.4115 121.689 67.5381 123.201 66.8607Z" fill="#28865F" fill-opacity="0.8"/>
<path d="M125.413 58.7084L125.614 58.8543C125.774 59.3717 125.515 60.7416 125.531 61.3875C125.483 62.0782 125.656 63.0139 125.581 63.6819C125.492 64.4852 123.792 64.2282 123.357 64.1523C123.093 63.9128 123.133 64.0412 123.081 63.7727C123.517 63.3553 124.343 63.8095 124.79 63.5783C125.345 62.7983 124.38 59.7643 125.413 58.7084Z" fill="#28865F" fill-opacity="0.8"/>
<path d="M120.41 57.2297L120.5 57.2363C121.277 58.1347 121.919 57.3172 122.543 58.0018C122.888 58.905 122.401 59.382 121.644 59.7413C121.218 59.2618 121.321 59.0892 121.264 58.4591C120.845 58.2301 119.36 58.7393 119.413 57.5369L119.562 57.4641C119.754 57.5131 119.939 57.5718 120.123 57.6431C120.387 57.4731 120.269 57.5781 120.41 57.2297Z" fill="#28865F" fill-opacity="0.8"/>
<path d="M121.43 55.329C122.097 55.2204 124.299 55.7148 124.139 56.6386L123.898 56.7346C123.51 56.723 123.239 56.5422 122.885 56.3655C121.602 55.8715 120.661 56.3068 119.912 55.9441L119.902 55.8026C120.439 55.3835 120.746 55.4018 121.43 55.329Z" fill="#28865F" fill-opacity="0.8"/>
<path d="M112.355 55.1419C113.27 55.4987 114.4 57.2012 113.383 57.7141C112.912 57.4745 112.924 57.3903 112.451 57.619C112.251 57.8601 112.278 57.8925 112.009 57.9937L111.841 57.7517C111.895 56.9825 112.706 57.0995 112.9 56.6504C112.652 56.0324 112.413 55.9709 112.145 55.4455L112.355 55.1419Z" fill="#28865F" fill-opacity="0.8"/>
<path d="M147.156 91.9939L147.582 91.9995C147.236 92.7092 146.935 93.323 146.54 94.0042C147.873 94.139 149.202 94.0443 150.545 94.039L156.128 94.0552L175.97 94.0569C176.152 94.0563 176.182 94.024 176.322 93.93L176.526 93.9925C176.343 94.2557 176.271 94.373 175.93 94.3827C174.729 94.4171 173.527 94.4079 172.325 94.4095L145.948 94.3873C146.287 93.627 146.781 92.8096 147.156 91.9939Z" fill="#28865F" fill-opacity="0.8"/>
<path d="M177.785 88.9733C178.173 88.9548 178.823 88.8714 179.142 89.0264C179.152 89.0863 179.162 89.146 179.171 89.2057C178.256 90.783 177.45 92.4196 176.526 93.9925L176.322 93.93C176.792 92.7342 178.517 89.9356 178.656 89.4099L178.495 89.3141L178.53 89.1276C178.241 89.0818 178.07 89.0443 177.785 88.9733Z" fill="#28865F" fill-opacity="0.8"/>
<path d="M125.1 41.9875C124.219 41.2565 123.11 40.6877 121.943 40.6733C122.343 40.8801 124.798 41.9396 125.1 41.9875Z" fill="#28865F" fill-opacity="0.8"/>
</svg>
