<svg width="193" height="197" viewBox="0 0 193 197" fill="none" xmlns="http://www.w3.org/2000/svg">
<path d="M123.936 171.002C77.2577 183.51 59.7005 167.276 45.5144 114.333C31.3282 61.3894 32.1508 15.1684 78.8291 2.66099C125.507 -9.84642 174.848 22.9334 189.034 75.8768C203.22 128.82 170.614 158.495 123.936 171.002Z" fill="#F6FAF9"/>
<path d="M153.656 105.223C153.656 153.548 135.825 166.305 87.5 166.305C39.1751 166.305 0 153.548 0 105.223C0 56.8983 39.1751 17.7232 87.5 17.7232C135.825 17.7232 153.656 56.8983 153.656 105.223Z" fill="#EEF5F2"/>
<path d="M108.794 35.0147C112.951 34.9788 119.464 37.3394 120.311 42.2343C120.76 44.8347 118.204 46.3946 115.857 46.5849C116.068 52.9846 111.301 62.8966 103.672 61.4887C102.259 64.3065 100.421 67.1839 98.9768 69.9915C103.397 74.7807 103.501 80.2854 101.182 86.0927C99.4259 90.4901 99.848 91.5688 99.7386 96.0208C99.6008 100.726 99.5398 105.433 99.5559 110.14C100.26 109.243 101.17 107.696 101.796 106.695L117.499 81.4112C118.081 80.4799 120.943 75.6274 121.522 75.3281C124.153 73.9684 128.664 73.0663 131.572 72.061C132.398 70.0369 133.619 67.7184 134.511 65.6881C134.894 64.8172 136.248 61.8746 136.734 61.2366C137.027 61.0418 137.331 61.0431 137.671 61.078C138.681 61.1817 146.912 64.5377 147.289 65.2128C147.796 66.1172 146.372 68.4626 145.962 69.2931C146.167 69.4851 146.505 69.8032 146.509 70.0937C146.538 71.7343 145.75 73.508 145.486 75.2658C145.191 76.3937 145.463 77.4618 145.281 78.6128C144.913 80.9525 143.905 82.1403 142.518 83.8433L138.825 88.335L127.09 102.858C125.019 105.413 122.383 108.483 120.49 111.102C121.943 110.738 123.701 110.081 125.13 109.579L131.619 107.302C133.005 106.818 134.508 106.242 135.929 105.948C139.66 105.185 143.54 105.971 146.687 108.127C148.986 109.685 150.762 111.908 151.779 114.503C152.676 116.824 153.358 120.966 153.863 123.529L166.46 186.539C170.425 189.178 175.261 189.507 179.427 191.527C180.672 192.129 181.023 194.533 180.732 195.78C180.306 196.098 177.278 195.967 176.519 195.966L169.973 195.964C165.745 195.963 161.515 195.963 157.285 195.979C154.461 195.99 154.554 193.902 154.502 191.66C154.466 190.116 154.515 188.58 154.575 187.038C154.157 187.019 154.025 187.036 153.641 186.896C152.96 186.257 143.683 149.593 142.244 145.386C137.598 154.393 133.189 163.542 128.681 172.621C127.748 174.502 123.881 182.946 122.895 183.889C123.642 185.151 126.016 189.245 126.889 190.124C128.697 190.475 130.91 190.341 131.84 192.382C132.215 193.208 132.337 194.943 132.017 195.782C131.512 196.162 122.959 195.962 121.53 195.96C121.095 195.721 120.687 195.366 120.294 195.053C118.208 193.341 116.092 191.667 113.947 190.032C113.943 192.056 113.924 193.966 113.99 195.993C108.24 195.873 101.898 195.938 96.1335 195.988C96.2391 188.841 96.1698 181.326 96.1599 174.161L96.1559 167.551C96.151 165.678 96.1906 163.811 95.9033 161.959C95.577 159.823 94.8042 157.782 93.636 155.969C91.4615 152.647 88.0334 150.165 84.1486 149.345C89.0182 149.095 94.064 149.344 98.9461 149.251C101.233 149.208 103.99 149.099 106.156 149.768C109.953 150.942 112.899 154.337 113.681 158.241C114.06 160.147 113.935 162.396 113.926 164.334L113.923 170.711C113.919 171.467 113.76 173.152 114.068 173.73C114.408 173.471 117.344 166.185 117.743 165.23L129.497 137.107C130.556 134.578 131.771 131.822 132.709 129.257C130.515 129.906 126.555 131.601 124.297 132.471L89.8897 145.793C87.0692 146.887 83.1109 148.297 80.4504 149.573C81.2027 149.621 81.9543 149.664 82.6994 149.76C89.8371 150.685 95.1375 156.777 95.5469 163.936C95.6136 165.102 95.5396 166.403 95.5341 167.591L95.5154 173.637L95.531 196.01C93.3625 195.905 90.8534 195.97 88.6487 195.97L42.8335 195.982L42.8281 104.361C42.8273 99.879 43.0571 96.4059 46.4458 92.9667C50.3306 89.0243 54.6767 89.5042 59.752 89.501C61.1866 86.4767 62.9178 83.6041 64.9199 80.926C69.8885 74.3662 76.0318 69.2398 84.0633 66.9842C85.6482 66.5391 87.2523 66.3587 88.8808 66.1387C89.7129 65.4714 91.7156 63.1003 92.4766 62.2241C94.361 60.075 96.2287 57.9111 98.0795 55.7328C97.5737 54.0307 97.5812 52.3179 96.7943 50.6338C96.5845 50.1847 96.5127 48.2252 96.5245 47.6378C96.5833 44.71 97.1082 41.1653 99.2034 38.9531C100.319 37.8207 101.608 37.8667 103.029 37.9113C104.424 35.6974 106.356 35.1963 108.794 35.0147ZM105.59 117.22C104.151 119.72 102.825 122.357 101.417 124.877C100.455 126.598 99.4567 128.809 98.1539 130.236C96.9478 131.571 95.3909 132.535 93.6629 133.019C91.3105 133.655 88.4235 133.293 86.3339 132.034C83.6691 130.43 82.7781 128.682 81.7594 125.885C79.934 126.742 77.1834 127.651 75.2106 128.42C70.9487 130.099 66.6773 131.754 62.3965 133.385C60.8606 133.962 57.287 135.172 55.9216 135.827C56.7921 140.468 58.8308 144.291 62.7626 146.961C66.1714 149.277 70.7491 150.746 74.8449 149.824C78.1538 149.078 82.0272 146.899 85.1026 145.388C89.4408 143.276 93.7679 141.143 98.0838 138.986L114.291 131.004C116.127 130.088 118.474 129.026 120.226 128.081C125.491 125.485 131.032 122.642 136.315 120.168C136.902 121.698 137.52 124.377 137.974 126.065C139.008 129.787 140.008 133.519 140.973 137.259L149.777 170.248L152.641 180.906C153.1 182.594 153.6 184.596 154.119 186.241C157.415 186.14 162.526 186.301 165.518 185.995C164.473 180.069 163.085 173.745 161.897 167.824L153.072 123.549C152.658 121.455 151.863 116.945 151.187 115.089C150.28 112.593 148.635 110.438 146.472 108.913C144.384 107.434 140.426 105.885 137.862 106.418C135.238 106.641 132.661 107.722 130.157 108.596L122.169 111.384L112.591 114.655C110.236 115.461 107.865 116.209 105.59 117.22ZM88.7548 104.212C86.117 105.022 83.3128 106.109 80.7038 107.046C79.8046 107.369 77.6452 108.067 76.8984 108.415C77.5168 109.787 78.4096 112.911 78.9111 114.45L82.9783 127.033C85.6498 133.483 94.1107 134.658 98.2197 128.958C99.1304 127.694 99.9085 126.095 100.662 124.714L104.678 117.33L114.194 99.9739C115.894 96.8724 117.671 93.4662 119.418 90.4225C120.86 89.9913 122.083 89.2746 122.825 87.8864C123.316 86.9664 123.41 85.8801 123.541 84.8679C123.635 84.1433 123.695 83.0854 124.545 82.8772C125.113 82.738 125.816 82.5006 126.401 82.5961C127.023 83.1692 125.319 84.2369 125.664 84.8716C126.75 84.9959 127.22 84.0285 127.685 83.2217C128.085 82.5262 128.878 82.108 128.362 81.3026C127.369 80.683 124.708 81.6101 124.167 80.8636C124.69 80.0591 127.345 80.7566 128.306 80.0964C129.08 78.2028 124.996 79.7496 123.92 78.954L123.845 78.7596C124.534 78.2294 127.478 78.7841 127.891 78.0758C127.938 77.9961 127.834 77.6294 127.797 77.4881C127.179 76.8792 125.482 77.4618 124.512 77.2873L124.357 77.1021C124.4 76.8956 124.4 76.8862 124.566 76.7718C126.09 75.7231 132.924 74.3659 133.337 72.7551C133.362 72.659 133.35 72.6033 133.34 72.5123C133.277 72.4779 133.214 72.4435 133.151 72.409C132.522 72.5445 131.77 72.7643 131.159 72.9582C128.258 73.8793 125.083 74.6403 122.255 75.7201C121.529 75.9968 119.322 79.8759 118.76 80.7779L99.8527 111.169C98.5193 113.352 97.1736 115.526 95.8154 117.693C95.2665 118.573 94.7185 119.488 94.165 120.368C94.0209 120.597 93.87 120.604 93.6618 120.625C93.1688 120.159 89.1578 105.968 88.7548 104.212ZM113.302 177.9C115.555 179.072 117.8 180.257 120.039 181.457C120.819 181.843 122.052 182.501 122.828 182.801C124.076 180.066 125.501 177.187 126.886 174.513C131.628 165.363 135.914 155.797 140.739 146.702L137.169 131.618L136.173 127.283C136.038 126.694 135.723 125.211 135.5 124.707C134.951 125.698 134.014 128.244 133.516 129.432L117.878 166.91C116.362 170.52 114.868 174.341 113.302 177.9ZM140.743 82.5137C139.392 83.1602 137.596 84.9968 136.36 85.3033L136.203 85.2405C136.27 84.6512 137.347 84.0105 137.792 83.6035L133.065 81.6821C132.52 84.0565 133.03 84.6754 132.946 87.0134C132.353 87.9192 130.991 89.3107 130.22 90.137L125.862 94.8171L116.52 104.89C114.915 106.625 113.17 108.616 111.532 110.285C109.853 112.194 107.963 114.115 106.347 116.043C107.969 115.522 118.105 112.177 118.973 111.573C119.888 110.936 123.089 106.608 123.988 105.5L138.713 87.2794C139.721 86.0215 140.738 84.7713 141.764 83.5288C142.407 82.7508 143.45 81.563 143.939 80.741C143.51 79.7025 141.656 74.8699 140.976 74.5859C139.875 76.2358 142.863 80.2187 142.596 81.8173L142.459 81.9434C141.727 81.5341 140.317 77.1973 139.83 76.908C138.646 77.5406 140.442 81.4587 140.743 82.5137ZM103.992 47.9178C103.686 47.1229 103.387 46.166 102.556 45.8076C100.869 45.0801 99.5042 47.1162 100.178 48.624C100.568 49.4948 101.218 49.8557 102.041 50.1912C100.98 51.1906 99.6145 51.9167 98.2377 52.37C98.6572 56.5256 99.9446 59.7177 104.22 60.9123C105.967 60.9385 107.101 60.8139 108.616 59.8634C111.81 57.8591 113.459 54.731 114.51 51.2107C114.061 51.0502 113.44 50.93 113.316 50.4129C113.7 50.0485 114.287 50.4316 114.735 50.6183C114.927 49.2323 115.044 48.0295 115.155 46.6328C111.118 46.2083 110.177 45.6719 106.763 43.3456C106.075 45.1295 105.288 46.5028 103.992 47.9178ZM121.763 195.211C123.675 195.304 125.811 195.257 127.741 195.252C128.949 195.243 130.11 195.237 131.318 195.176C131.785 189.92 128.485 192.064 126.269 190.488C124.693 189.365 122.873 184.475 121.349 183.038C120.778 182.545 114.438 179.317 113.808 179.131C112.832 180.609 110.402 183.832 110.259 185.429C110.181 186.286 115.654 190.404 116.543 191.055C118.219 192.284 120.136 194.184 121.763 195.211ZM176.232 195.255C177.289 195.254 179.1 195.305 180.096 195.222C180.04 194.364 179.994 192.83 179.179 192.33C176.537 190.711 173.025 190.377 170.149 189.172C168.347 188.417 166.842 187.543 165.024 186.934C164.398 186.76 160.221 186.825 159.429 186.876C158.062 186.912 156.693 186.932 155.325 186.937C155.29 188.901 155.236 190.887 155.31 192.862C155.37 194.466 155.66 195.174 157.389 195.236C159.531 195.299 161.69 195.266 163.83 195.264L176.232 195.255ZM126.984 85.3872L126.86 85.4248C126.222 85.6121 124.993 85.8799 124.623 85.1623C124.686 84.4928 125.06 83.9999 124.983 83.6032C123.674 83.8699 125.224 89.3915 119.956 91.0291C118.721 93.1639 108.291 112.117 108.269 112.601C108.474 112.564 108.379 112.604 108.551 112.475C110.186 110.829 111.929 108.76 113.529 107.023L124.214 95.4735L129.411 89.8705C130.049 89.1912 131.932 87.2824 132.348 86.5983C132.059 84.2603 131.894 83.7824 132.361 81.438C131.286 80.9188 130.181 80.4645 129.052 80.0775C128.978 80.7654 129.299 81.2447 129.286 81.6871C129.26 82.6042 127.626 84.8401 126.984 85.3872ZM132.627 71.787C133.193 71.7008 133.43 71.648 133.986 71.7559C135.292 71.5947 138.427 72.6339 136.931 74.3557C136.341 75.0347 134.423 73.9916 133.931 73.5558C132.989 74.5093 132.159 74.6183 130.982 75.2261C130.763 75.7294 130.609 76.3022 130.45 76.8322C131.566 77.3245 137.576 80.0517 138.394 79.8106C138.445 79.7957 138.493 79.7753 138.539 79.7514C139.146 79.4412 138.477 77.6465 138.683 77.051C138.882 76.4752 139.475 76.4361 139.811 76.0435C140.12 75.681 139.84 74.8363 140.148 74.3996C140.388 74.0605 140.82 73.9914 141.193 73.909C141.349 72.456 141.176 72.1812 142.516 71.4555C143.299 70.0186 144.217 67.8619 144.923 66.3322C143.171 65.4469 138.637 63.7325 136.708 62.9705C136.226 63.8308 135.578 65.3959 135.149 66.3392L132.627 71.787ZM93.758 118.824L93.8824 119.109L94.0312 119.105C94.7891 118.105 98.3355 112.409 98.6927 111.336C98.8584 110.839 98.7742 105.655 98.814 104.586L98.7001 104.453L98.5956 104.467C97.4261 104.527 96.2583 104.616 95.0932 104.734C94.2185 107.699 93.5513 110.596 93.0369 113.645C92.6466 115.956 93.0464 116.68 93.758 118.824ZM89.3917 67.0224C90.4912 69.5753 92.5973 72.1638 94.5568 74.0926C95.4532 74.7244 97.567 76.6891 98.5563 75.8785C99.0678 74.8039 98.3384 71.5973 97.9407 70.4253C98.5772 69.0144 99.7322 67.0851 100.525 65.7238C100.181 64.5047 98.673 57.1552 98.2558 56.7453C95.4918 59.9593 91.9412 63.7181 89.3917 67.0224ZM55.2286 131.969C57.6043 129.296 76.5244 110.825 76.6569 110.135C76.5713 109.938 76.5493 109.857 76.4317 109.678L63.1731 122.963C61.2353 124.889 59.3113 126.828 57.4013 128.781C56.8265 129.365 55.1689 130.821 54.9797 131.462C55.0093 131.697 54.9775 131.864 55.2286 131.969ZM77.6003 113.319L58.5506 132.436C58.1418 132.846 56.6767 134.264 56.4335 134.643L56.5094 134.715L56.6076 134.684C57.1986 134.485 57.5833 134.324 58.1661 133.737C64.7038 127.148 71.3639 120.627 77.8148 113.965C77.9579 113.816 77.8335 113.585 77.7747 113.441L77.6003 113.319ZM64.2268 131.848C66.4191 130.998 70.7353 125.825 72.8005 123.931C73.522 123.269 78.759 118.017 79.0326 117.531C79.0437 117.188 79.0944 117.336 78.8692 117.073L78.7799 117.046C73.7928 121.874 68.8822 126.782 64.0499 131.767L64.0516 131.894L64.2268 131.848ZM95.1798 104.19C95.5236 103.358 95.844 102.116 96.1289 101.223L97.9124 95.7371C98.212 94.823 99.3961 91.7068 99.4735 91.0238C99.284 90.7743 99.2599 90.8306 98.9156 90.7016C98.4764 91.6806 97.8191 93.9239 97.433 95.07C96.7849 96.9876 96.1584 98.9125 95.5537 100.844C95.2958 101.66 94.8084 103.061 94.6709 103.851C94.8109 104.126 94.7924 104.044 95.1798 104.19ZM143.977 73.4934L144.648 75.1941L144.809 75.1745C144.968 74.3096 145.86 70.6299 145.745 70.1631L145.499 70.0579C144.685 70.8107 144.251 72.4063 143.977 73.4934ZM142.302 72.3191C141.848 73.2015 142.104 74.1146 142.387 75.0007C142.593 75.6432 143.928 79.0613 144.255 79.3248L144.336 79.3129C144.521 78.787 144.623 78.4881 144.74 77.9311C144.438 76.8574 143.23 72.7623 142.302 72.3191ZM75.6268 106.583C75.7775 107.142 75.8597 107.822 76.423 108.086L76.5429 108.029C76.6945 107.366 75.2326 103.325 74.9382 102.444C74.2507 100.374 73.5781 98.3003 72.9202 96.2214L71.2126 90.9397C70.9976 90.2652 70.3034 87.5208 69.7083 87.2552C69.6645 87.408 69.5575 87.7631 69.4547 87.8638C68.6102 88.6916 67.6954 89.5075 66.8619 90.3442C64.1222 93.0484 61.3971 95.7676 58.6866 98.5016C57.7207 99.469 56.5149 100.588 55.6991 101.675C55.5794 101.834 55.4306 102.511 55.3792 102.737C58.4761 99.704 61.5428 96.5263 64.6163 93.4626C65.6691 92.4131 68.8687 89.3191 69.6303 88.249C69.9294 89.2016 70.2917 90.5009 70.6259 91.4103C68.6974 93.1169 66.4125 95.4977 64.5842 97.3658L56.0679 105.911C54.9706 107.013 54.4479 107.125 54.2417 108.691C59.7457 103.135 65.394 97.5832 70.8302 91.9831C71.1165 92.8885 71.463 94.1088 71.7972 94.9724C65.9188 100.728 59.5714 107.072 53.8854 112.996L53.7829 114.007C57.8087 110.109 61.9081 105.875 65.8701 101.886L69.7702 97.9783C70.4038 97.3436 71.4619 96.3268 72.004 95.6457C72.3202 96.62 72.6399 97.6707 73.0038 98.6217C70.9729 100.46 68.6068 102.994 66.6263 104.968L54.111 117.561C53.7703 117.894 53.5858 118.154 53.642 118.657L53.782 118.712C54.236 118.439 55.9922 116.569 56.5073 116.054L64.3955 108.121C66.1642 106.332 67.9451 104.556 69.7382 102.793C70.6974 101.845 72.4314 100.209 73.1898 99.1959C73.4999 100.155 73.8645 101.398 74.2112 102.321C70.6643 105.562 66.7003 109.753 63.2546 113.205L57.5767 118.897C56.6257 119.853 54.3506 121.944 53.8303 123.035L53.9307 123.256C54.4904 123.115 57.8505 119.551 58.4446 118.951L64.9076 112.494L71.035 106.339C72.086 105.283 73.4318 104.003 74.4033 102.914C74.6791 103.844 75.0106 104.998 75.3651 105.891L62.1175 119.205L57.2527 124.062C56.3815 124.934 55.5045 125.803 54.6635 126.704C54.3694 127.019 54.2946 127.243 54.3819 127.674C54.7115 127.635 73.6328 108.565 75.6268 106.583ZM75.8964 74.9536C75.9211 75.3637 75.8523 75.3015 76.0656 75.5502C78.1801 75.9445 79.7635 75.8698 81.2039 78.2017C81.9996 79.4896 82.983 83.7587 83.4379 85.4222L86.3108 95.5956C86.644 96.8017 88.353 103.424 88.8066 103.797L89.1093 103.799C89.3209 103.205 87.8251 98.3603 87.5617 97.4352L85.0204 88.445L83.3499 82.5022C82.4676 79.3358 82.1009 76.4826 78.6008 75.2759C77.6259 74.9398 76.9298 74.8824 75.8964 74.9536ZM72.0647 128.806C74.1068 128.134 77.196 124.005 78.9932 122.518C79.3098 122.257 79.9422 121.549 80.2106 121.216C80.2152 120.961 80.1885 120.825 79.9751 120.6C78.8883 121.687 72.2691 128.089 71.9356 128.777L72.0647 128.806ZM81.1398 124.229C80.8093 124.556 79.8166 125.427 79.8051 125.83L79.9648 125.821C80.6892 125.486 81.9579 125.156 81.1398 124.229ZM129.786 75.6467C129.08 75.9129 128.335 76.1797 127.638 76.4602C128.092 76.7546 128.31 76.8988 128.608 77.3621L128.69 77.847C129.071 77.8213 129.816 75.9874 129.786 75.6467ZM133.449 79.211C133.208 79.2936 133.034 79.5038 132.997 79.7561C132.959 80.0084 133.065 80.2607 133.27 80.4102C133.475 80.5596 133.746 80.5814 133.973 80.4665C134.291 80.305 134.431 79.9231 134.293 79.5924C134.154 79.2617 133.785 79.0951 133.449 79.211ZM63.8862 88.5889C62.9971 89.2721 58.3113 93.8866 57.7539 94.7754C57.5932 95.036 57.4884 95.3276 57.4465 95.6314L57.5163 95.6731C59.3077 93.9415 61.1003 92.1799 62.8405 90.3953C63.2895 89.9348 63.9248 89.3398 63.9665 88.6818L63.8862 88.5889Z" fill="#93C3AF"/>
<path d="M111.404 51.2782C111.765 51.3764 111.637 51.278 111.847 51.515C111.961 52.3341 111.276 55.3223 110.975 56.1468L109.971 55.8206C109.602 55.7026 109.235 55.6573 109.255 55.209C109.736 54.9154 110.081 55.1544 110.557 55.3465C110.876 54.0516 111.115 52.6046 111.404 51.2782Z" fill="#93C3AF"/>
<path d="M108.032 48.4711C108.806 48.4643 110.19 48.4584 110.806 48.9256C110.91 49.257 110.904 49.0826 110.739 49.4644C109.844 49.2003 109.185 49.2266 108.28 49.0669C108.006 49.0187 107.988 48.9014 107.91 48.7196L108.032 48.4711Z" fill="#93C3AF"/>
<path d="M106.555 56.2564C107.034 56.4528 108.38 57.2674 108.665 57.7433C108.758 57.8997 108.687 58.0019 108.644 58.2404C107.944 58.0573 106.926 57.3808 106.455 56.8193C106.382 56.4583 106.375 56.6424 106.555 56.2564Z" fill="#93C3AF"/>
<path d="M101.486 46.4797C102.114 46.6853 102.357 47.8918 102.585 48.4717C102.719 48.8127 102.66 48.9453 102.498 49.2399C101.847 48.9253 101.188 47.1864 101.486 46.4797Z" fill="#93C3AF"/>
<path d="M113.291 51.8747C113.706 52.076 113.561 51.9282 113.775 52.2992C113.79 52.7235 113.651 52.8969 113.451 53.2916C113.172 53.1874 113.064 53.1873 112.903 52.9451C112.851 52.5824 113.11 52.2175 113.291 51.8747Z" fill="#93C3AF"/>
<path d="M109.256 50.1107C109.623 50.3226 109.507 50.1762 109.66 50.5272C109.641 50.9466 109.43 51.2362 109.226 51.614C108.365 51.3854 108.973 50.5964 109.256 50.1107Z" fill="#93C3AF"/>
<path d="M133.986 71.7559C135.292 71.5947 138.427 72.6339 136.931 74.3557C136.341 75.0347 134.423 73.9916 133.931 73.5558C134.041 73.1677 134.11 72.8368 134.515 72.6555C134.321 72.2531 134.162 72.2519 133.986 71.7559Z" fill="#93C3AF"/>
<path d="M128.95 61.2417C129.701 61.2742 131.703 62.2988 132.389 62.8343C132.568 62.9742 132.505 63.1313 132.494 63.3556C131.764 63.307 129.731 62.2818 129.069 61.754C128.899 61.6188 128.949 61.4508 128.95 61.2417Z" fill="#93C3AF"/>
<path d="M132.316 56.6183C133.089 56.8981 134.737 59.3484 134.525 60.212C133.793 59.8096 132.766 58.0649 132.341 57.3043C132.145 56.9532 132.21 56.9098 132.316 56.6183Z" fill="#93C3AF"/>
<path d="M137.515 55.132C137.619 55.1612 137.839 55.2171 137.898 55.2999C138.323 55.8986 138.084 58.2941 137.976 58.9362C137.714 58.8996 137.725 58.916 137.532 58.74C137.282 58.0937 137.344 55.8297 137.515 55.132Z" fill="#93C3AF"/>
<path d="M127.849 66.7069C128.609 66.6644 130.694 66.4689 131.222 66.9172L131.242 67.291C130.504 67.2863 128.287 67.514 127.821 67.0235L127.849 66.7069Z" fill="#93C3AF"/>
</svg>
