<svg width="193" height="197" viewBox="0 0 193 197" fill="none" xmlns="http://www.w3.org/2000/svg">
<path d="M68.4477 171.002C115.126 183.51 132.683 167.276 146.869 114.333C161.055 61.3894 160.233 15.1684 113.555 2.66099C66.8763 -9.84642 17.5359 22.9334 3.34981 75.8768C-10.8363 128.82 21.7694 158.495 68.4477 171.002Z" fill="#F6FAF9"/>
<path d="M38.7275 105.223C38.7275 153.548 56.5587 166.305 104.884 166.305C153.209 166.305 192.384 153.548 192.384 105.223C192.384 56.8983 153.209 17.7232 104.884 17.7232C56.5587 17.7232 38.7275 56.8983 38.7275 105.223Z" fill="#EEF5F2"/>
<path d="M113.58 35.0504C115.247 34.8762 116.916 35.3582 118.232 36.3952C119.672 37.5349 120.768 39.5926 120.911 41.4049C121.143 44.3391 120.046 46.2041 118.324 48.3502C119.67 53.6355 118.569 55.3023 117.671 60.2086C117.961 60.343 118.494 60.5731 118.738 60.7604C120.928 62.4464 120.717 66.1788 119.15 68.2204C118.012 69.7037 116.832 70.205 115.058 70.4547C114.477 74.6285 113.516 76.8031 111.053 80.1569C110.641 84.0509 111.046 89.387 111.782 93.2438C111.987 94.3163 113.271 96.8426 114.305 97.3395C115.95 98.1301 117.841 98.8455 119.557 99.5661C122.3 100.745 125.055 101.898 127.82 103.023C132.397 104.842 138.597 107.038 142.569 109.826C144.487 111.171 146.048 113.405 147.388 115.292C148.411 114.527 149.712 113.309 150.736 112.454C149.975 111.412 149.306 110.777 148.447 109.831L144.802 105.805L133.175 93.1188C132.656 92.5575 129.095 88.7867 128.97 88.401L129.119 88.3346C129.199 88.1212 129.279 87.8435 129.349 87.6207C129.015 87.5335 129.117 87.6297 128.973 87.3903C129.106 87.0505 137.292 79.3245 138.177 78.7252C138.391 78.9764 138.324 79.0816 138.357 79.4918C138.634 79.0971 138.659 79.0878 139.068 78.8161L139.124 78.694C139.431 78.7973 149.726 90.0342 150.784 91.1344C152.267 88.9719 154.211 85.4174 155.592 83.0709L164.912 67.1871C165.454 66.2641 168.167 61.4659 168.671 61.0504C168.998 61.0156 169.206 60.928 169.514 60.8229C169.593 60.6958 169.588 60.6435 169.714 60.6373C171.098 60.5685 172.968 60.5355 174.319 60.5621C177.394 60.6228 180.751 60.4161 183.787 60.5221L183.869 60.6452L183.725 60.8825L183.899 61.5006L184.187 61.3942L184.319 61.4821C184.309 62.1564 180.712 68.1143 180.167 69.0407L175.269 77.4752L154.199 113.607C154.324 117.593 152.527 118.138 150.024 120.498C150.197 120.987 150.446 121.623 150.555 122.116C153.901 121.815 155.038 120.65 157.843 118.947C157.597 115.916 157.32 113.422 160.877 112.685C161.055 110.86 161.339 109.54 162.82 108.274C163.794 107.441 164.761 107.455 165.409 108.612L165.501 108.775C165.52 108.811 165.54 108.847 165.559 108.882C166.865 107.431 170.049 106.175 170.262 108.909C170.377 110.41 168.914 113.493 168.503 115.199C167.908 117.675 166.647 120.985 165.522 123.318C164.927 124.55 162.67 126.503 161.827 127.732C160.133 129.222 158.169 131.247 156.433 132.548C156.179 132.739 153.751 133.547 153.281 133.723C154.474 138.811 155.692 143.893 156.936 148.969C157.269 150.345 158.505 154.79 158.506 155.9C158.003 156.539 156.031 156.971 155.159 157.25C155.654 161.314 155.926 165.601 156.366 169.725C156.705 172.906 157.508 176.904 157.315 179.969C157.147 182.642 155.1 187.894 153.526 190.173C152.519 191.632 150.151 192.684 148.377 192.894C146.803 193.086 145.22 192.624 144 191.613C142.333 190.256 139.773 187.545 138.711 185.667C138.191 184.75 137.497 182.981 136.967 182.264C136.94 184.176 137.085 186.357 137.166 188.286L137.455 195.898C136.591 195.911 135.625 195.946 134.77 195.929L134.448 195.859C133.854 195.859 134.448 195.859 133.746 195.859C132.535 196.025 130.331 195.935 129.049 195.915L128.184 195.695C127.628 196.116 123.991 195.925 123.124 195.907L122.438 195.689C121.768 195.993 118.164 195.977 117.311 195.909C117.148 195.882 116.725 195.756 116.545 195.707C115.886 196.023 112.23 196.004 111.39 195.931C111.203 195.855 110.883 195.762 110.681 195.695C109.857 196.111 106.536 196.049 105.644 195.913L104.695 195.794C103.863 196.117 100.884 195.911 99.786 195.915L99.1063 195.691C98.2904 196.098 95.0945 195.971 94.0585 195.898C93.7137 195.781 93.6 195.71 93.2782 195.529C92.5781 196.3 89.3603 195.864 88.1337 195.938C87.9696 195.511 87.8942 195.514 87.9481 195.123C87.5569 195.283 87.3136 195.567 87.0009 195.862C86.0589 195.972 83.1904 195.977 82.1981 195.885L81.6112 195.427C81.1452 195.876 80.9368 195.892 80.3007 195.926C79.013 195.998 77.7015 195.908 76.4139 195.89C76.1709 195.788 75.9284 195.686 75.6864 195.581C74.8676 196.103 71.6139 196.014 70.5389 195.912C70.1075 195.827 69.9357 195.815 69.495 195.801C68.886 196.025 64.8407 195.933 64.0428 195.901C64.0074 194.539 64.0809 192.958 64.0887 191.565C60.2703 192.482 56.8168 193.078 52.8661 192.763C43.9604 192.052 44.2809 181.566 44.6825 175.23C44.924 171.321 45.2595 167.416 45.6884 163.523C45.8849 161.602 46.231 159.237 46.3182 157.351C45.5815 157.049 43.146 156.499 42.83 155.885C42.7752 154.891 44.454 148.685 44.8124 147.244L47.3671 136.721L49.6737 127.188C50.4006 124.236 51.0496 121.51 52.1688 118.686C54.1346 113.728 57.7469 109.622 62.7323 107.541C70.3447 104.363 78.11 101.42 85.7772 98.3707C87.2263 97.7945 88.4538 97.2742 89.3719 95.9147C92.0494 91.2956 91.7407 84.6044 91.3807 79.4284C91.3475 78.9592 90.1136 77.2015 89.8348 76.6432C88.79 74.5502 88.4524 72.7174 88.0868 70.4528C87.6786 70.403 87.009 70.3139 86.6298 70.1881C82.5915 68.8474 80.9627 62.4696 85.1503 60.2594C84.674 58.5874 84.2683 56.8961 83.9335 55.1901C83.3854 52.3724 82.9404 48.3337 84.6874 45.8327C85.7606 44.2961 86.9402 44.0108 88.6327 43.6891C88.8198 41.8471 89.0256 40.7563 90.1835 39.2125C92.5644 36.0384 97.0539 35.5127 100.711 36.111C103.066 36.4964 104.784 37.1987 107.297 37.0592C109.847 36.9174 111.274 35.3136 113.58 35.0504ZM151.408 113.222C149.316 115.019 146.729 117.254 144.424 118.729C142.957 119.54 141.421 120.203 139.914 120.947C135.674 123.039 133.956 125.758 133.533 130.381C133.067 135.496 133.716 140.026 134.198 145.114C134.622 149.593 135.021 154.075 135.396 158.559L136.331 169.718C136.594 173 136.754 176.304 137.482 179.524C138.118 182.332 139.207 185.071 141.107 187.273C142.635 189.041 145.005 191.777 147.457 191.91C149.123 192 151.028 191.16 152.23 190.005C153.66 188.629 155.315 184.229 155.821 182.273C156.09 181.233 156.257 180.132 156.264 179.056C156.293 174.528 152.641 166.103 151.066 161.665C149.55 157.39 148.092 153.096 146.694 148.783C145.97 146.489 145.334 144.569 144.762 142.226C144.142 139.524 144.153 139.201 144.321 136.446C143.624 136.613 141.029 137.5 140.825 136.554C141.261 136.072 143.887 135.52 144.722 135.273C147.454 134.464 150.173 133.609 152.875 132.708C153.658 132.449 155.767 131.838 156.314 131.376C157.66 130.239 159.243 127.887 160.234 126.385C161.402 124.617 162.203 124.231 162.046 122.057C161.93 120.457 161.799 119.132 161.536 117.53C161.182 117.416 160.651 117.261 160.325 117.116C159.891 116.588 159.735 116.321 159.62 115.646C159.575 115.378 159.468 114.628 159.284 114.499C157.813 116.475 159.793 120.658 158.649 122.943C158.45 123.34 156.907 124.789 156.445 125.248C155.842 125.846 155.021 127.119 154.481 127.473L154.262 127.482C153.894 126.947 154.312 126.488 154.623 126.016C153.837 126.147 153.209 126.264 152.464 126.487C151.537 126.765 150.33 127.477 149.396 127.449C146.389 127.357 143.562 126.399 140.537 127.172C138.868 127.598 138.009 128.337 136.961 129.678C136.712 129.978 136.413 130.393 136.126 130.64C135.979 130.766 136.035 130.723 135.784 130.554C135.68 130.33 135.715 130.068 135.815 129.848C137.702 125.671 142.704 125.609 146.599 126.244C147.543 126.398 148.529 126.585 149.481 126.53C150.294 126.461 151.291 125.871 152.082 125.615C153.101 125.287 154.323 125.046 155.386 124.952C155.89 124.523 157.727 122.764 157.84 122.193C157.256 121.991 156.105 123.442 155.236 123.231C154.518 122.042 158.001 121.744 158.006 120.207L157.895 120.133C157.352 120.347 156.385 120.976 155.888 121.302C153.733 122.721 151.595 123.266 149.006 123.172C148.292 123.145 145.798 123.099 145.348 122.432C145.704 121.909 147.033 121.965 147.612 121.959C147.812 120.776 148.466 120.372 149.381 119.668C151.11 118.336 152.558 117.186 153.256 115.048C152.928 114.657 151.806 113.429 151.408 113.222ZM47.411 157.673C46.8534 163.248 46.1016 168.756 45.83 174.395C45.5995 179.177 44.8008 185.148 48.0272 189.203C49.0386 190.473 50.7795 191.639 52.411 191.752C63.9583 192.581 73.8963 186.035 84.4813 182.256C86.6757 182.941 88.3011 184.168 90.5956 184.867C93.2988 185.691 95.9663 185.271 98.4911 186.044C101.958 187.102 105.555 189.431 109.18 189.929C108.234 188.641 108.779 188.705 109.353 187.495C108.554 186.936 106.84 186.434 105.885 185.947C104.424 185.203 103.05 184.326 101.612 183.532C100.991 183.189 100.425 182.952 99.8153 182.629C99.6032 182.517 99.3142 182.169 99.246 181.906C99.3588 181.539 100.019 181.639 100.264 181.755C102.47 182.799 104.951 183.591 107.115 184.677C109.32 185.783 111.1 187.432 113.363 188.434C112.429 187.124 112.609 186.628 113.783 185.623L113.692 185.525C112.904 184.699 111.991 184.084 111.143 183.358C108.7 181.264 105.697 180.069 102.813 178.723C102.345 178.505 101.475 178.117 101.319 177.595C101.956 176.969 103.833 178.1 104.526 178.444C106.389 179.369 108.368 180.141 110.122 181.25C112.099 182.516 114.628 185.117 116.514 186.274C116.007 184.867 115.849 184.109 117.308 183.272C116.568 182.441 115.879 181.757 115.133 180.962C114.16 179.984 113.01 178.795 111.849 178.07C110.319 177.114 108.582 176.29 106.947 175.522C105.926 175.043 104.808 174.614 103.872 173.97C103.57 173.763 103.38 173.55 103.307 173.203C103.833 172.697 105.654 173.903 106.325 174.144C108.672 174.986 111.035 175.746 113.193 177.023C114.982 178.047 116.598 179.687 118.354 180.515C117.347 179.336 116.623 178.085 118.485 177.244C115.377 173.715 111.075 171.644 106.733 170.155C105.158 169.614 103.74 168.73 102.031 168.721C101.106 168.666 98.7227 169.012 98.2333 168.555L98.1395 168.345C98.6454 167.614 102.444 167.747 103.373 167.946C105.973 168.503 108.085 170.585 110.846 169.376C112.116 168.82 112.673 168.375 113.32 167.142C111.505 167.406 109.756 168.017 108.476 166.376C105.873 166.344 102.81 166.144 100.248 166.378C97.885 166.592 95.1951 167.77 92.9491 168.472C85.1629 171.386 76.9111 171.834 68.7098 172.488C64.8827 172.793 61.1064 172.894 57.3778 173.851C56.4617 174.086 54.1962 175.236 53.4315 174.817C53.3088 173.343 60.5284 172.056 61.9784 171.973C62.8487 171.924 63.8564 171.824 64.7177 171.707L64.8407 165.566C64.8505 164.749 64.8998 163.464 64.8309 162.686C61.602 161.515 57.3264 160.497 53.995 159.516C52.464 159.065 48.8118 157.895 47.411 157.673ZM109.586 188.312C109.39 188.614 109.337 188.654 109.357 189.017C109.674 189.778 110.627 189.808 111.355 189.86C111.452 189.634 111.609 189.417 111.482 189.172C111.18 188.59 110.191 188.326 109.586 188.312ZM113.797 186.45C113.184 187.665 114.308 188.495 115.407 188.548C116.233 187.41 114.809 186.506 113.797 186.45ZM118.522 184.883C118.073 184.487 117.6 184.01 116.985 184.452C116.684 185.041 117.131 185.609 117.518 186.03C117.861 186.376 118.027 186.553 118.521 186.563C119.38 186.141 118.907 185.438 118.522 184.883ZM118.284 178.107C117.76 179.532 119.003 180.354 120.286 180.469C120.955 179.233 119.344 178.247 118.284 178.107ZM153.704 157.76C152.869 158.025 151.907 158.304 151.097 158.612C152.071 161.932 153.475 165.09 154.512 168.37C154.761 169.118 154.917 169.425 155.289 170.13C155.198 168.718 154.267 158.178 154.082 157.781C153.853 157.731 153.935 157.731 153.704 157.76ZM112.582 166.207C112.217 166.193 112.096 166.193 111.735 166.228C110.982 166.267 110.143 166.281 109.418 166.454C109.786 166.528 110.316 166.654 110.675 166.697C111.417 166.628 111.914 166.58 112.617 166.28L112.582 166.207ZM163.041 109.401C160.723 111.861 162.652 117.414 162.942 120.4C163.139 122.425 162.928 122.856 162.764 124.625L162.746 124.811C163.104 124.69 163.602 124.176 163.875 123.889C164.351 123.386 164.682 122.763 164.829 122.087C164.997 121.298 164.916 120.11 164.93 119.274C164.964 117.187 164.844 115.113 164.799 113.033C163.218 112.307 163.169 111.461 163.131 109.835L163.132 109.44L163.041 109.401ZM167.757 108.356C164.603 110.221 166.096 113.51 165.923 116.463C165.884 117.144 165.893 118.341 166.005 118.987L166.089 119.069C166.214 118.906 166.249 118.888 166.333 118.705C166.966 116.785 168.447 111.333 169.021 109.401C169.021 108.613 168.537 108.74 168.391 108.377C168.187 108.369 167.96 108.353 167.757 108.356ZM160.41 113.845C159.954 114.873 160.179 116.037 161.221 116.585C161.269 115.99 161.022 114.095 160.41 113.845ZM164.345 108.891C163.754 109.907 163.612 110.983 164.519 111.85L164.658 111.752C164.73 111.221 164.719 109.248 164.345 108.891ZM92.7225 81.0299C92.747 85.714 93.0355 93.8142 89.6171 97.3756C88.9479 98.0728 88.0134 98.6226 87.1649 99.0729C89.7171 104.277 94.7844 107.234 100.53 107.628C103.174 107.809 105.773 107.155 108.191 106.112C111.376 104.547 113.857 102.313 115.357 99.0631C111.507 97.0368 110.918 94.307 110.265 90.3131C103.931 90.2136 99.8007 87.9165 95.2323 83.5885C94.6222 83.0104 93.3672 81.4161 92.7225 81.0299ZM93.7772 50.3463C88.8558 50.8887 89.2728 54.4171 88.8348 58.0641C88.3115 62.4237 88.665 65.7493 89.0848 70.0397C90.0158 79.5501 99.3365 88.6118 108.47 81.2643C113.811 76.4906 114.171 71.4988 114.639 64.7086C114.898 60.9264 114.783 54.9166 113.741 51.2995C108.692 53.49 103.926 52.7229 98.7831 51.3121C97.1536 50.8651 95.4715 50.3001 93.7772 50.3463ZM107.358 72.5377C107.657 72.6691 107.637 72.6591 107.84 72.9176C107.865 73.5327 107.289 73.9598 106.792 74.2448C103.54 76.1065 99.2001 76.1354 96.1132 74.0075C95.8273 73.7755 95.728 73.7285 95.577 73.3873C95.6154 73.0399 95.5455 73.1795 95.7665 72.9401C96.4589 72.79 97.6154 73.7395 98.3026 73.9704C101.831 75.155 104.438 74.5735 107.358 72.5377ZM102.178 60.4616C102.634 60.4949 102.676 60.4597 102.978 60.7125C103.156 61.2454 103.227 62.8541 103.312 63.5182C103.548 65.3335 103.847 67.0864 103.973 68.9137C103.114 70.6611 101.923 70.4363 100.299 70.0338C100.007 69.9189 100.019 69.9202 99.7743 69.7204C99.6616 69.3806 99.6728 69.5495 99.7489 69.193C100.697 68.5699 103.08 70.3429 102.974 68.1588C102.854 65.7165 101.906 62.8936 102.178 60.4616ZM85.578 61.1998C84.6628 61.7003 84.1315 62.2663 83.9198 63.3727C83.4285 65.9402 84.8896 68.5997 87.3866 69.4411C87.6233 69.5208 87.834 69.4244 88.0135 69.2731C88.0021 68.6227 87.8719 68.1284 87.7899 67.4977C87.7056 66.8498 87.8148 66.8565 87.1874 66.611C86.6309 65.3065 86.8431 64.5711 85.4052 63.7184C85.1311 63.556 85.1661 63.3669 85.2733 63.0954C86.2584 62.5716 87.0949 63.9139 87.6405 64.5778C87.6027 64.1709 87.5484 63.6861 87.5204 63.2819C87.4066 61.6374 87.3395 61.1323 85.578 61.1998ZM116.668 61.2008C116.39 61.2847 116.153 61.3352 116.02 61.6051C115.652 62.3557 115.721 63.6268 115.712 64.4704C116.17 63.8513 116.92 62.6125 117.787 62.9821C117.991 63.2484 117.992 63.1846 118.053 63.4899C117.573 64.0907 115.852 65.0176 116.328 66.237L116.614 65.8698L116.707 65.9909C116.617 66.3036 116.63 66.3658 116.397 66.5934C116.092 66.6789 116.037 66.6825 115.734 66.7125C115.492 67.006 115.482 67.2677 115.468 67.6832L115.249 69.4508C118.534 68.7068 119.849 66.4231 119.237 63.1032C119.008 61.8534 117.915 61.1737 116.668 61.2008ZM107.652 61.0895C109.431 61.0097 109.506 63.0502 108.42 64.0621C106.673 64.1523 106.531 62.1034 107.652 61.0895ZM95.2479 61.0768C96.9971 60.9625 97.1221 63.1121 96.0096 64.0446C94.1932 63.9838 94.2318 62.0822 95.2479 61.0768ZM95.7723 57.5758C96.6054 57.5589 97.8767 57.6785 98.4979 58.2594C98.6418 58.6217 98.6255 58.4413 98.5526 58.8219C98.2397 59.0826 95.6993 58.6217 94.6639 58.7643C93.7914 59.0073 91.9565 60.3151 91.6249 59.2096C91.9435 58.2597 94.4573 57.694 95.3729 57.5993C95.5056 57.5872 95.6393 57.5794 95.7723 57.5758ZM107.19 57.5944C108.426 57.4897 111.426 57.8938 111.709 59.3288C111.339 59.9508 110.382 59.2992 109.922 59.0504C107.938 58.1499 107.235 58.8814 105.383 59.0211C105.171 59.0369 105.07 58.788 104.979 58.6207C105 57.7426 106.486 57.6896 107.19 57.5944Z" fill="#93C3AF"/>
</svg>
