<svg width="18" height="18" viewBox="0 0 18 18" fill="none" xmlns="http://www.w3.org/2000/svg">
<path fill-rule="evenodd" clip-rule="evenodd" d="M0.251587 5.8999H3.71655V17.5339H0.251587V5.8999ZM1.96252 0C2.49455 0.0348854 2.99345 0.270766 3.35791 0.659912C3.72238 1.04906 3.92517 1.56229 3.92517 2.09546C3.92517 2.62863 3.72238 3.14186 3.35791 3.53101C2.99345 3.92015 2.49455 4.15603 1.96252 4.19092C1.4305 4.15603 0.931726 3.92015 0.567261 3.53101C0.202796 3.14186 0 2.62863 0 2.09546C0 1.56229 0.202796 1.04906 0.567261 0.659912C0.931726 0.270766 1.4305 0.0348854 1.96252 0ZM5.76953 5.8999H9.19153V7.52588C9.55414 6.98531 10.0445 6.54251 10.619 6.23657C11.1936 5.93064 11.8347 5.77109 12.4856 5.77197H13.4265C14.4682 5.77724 15.4658 6.19352 16.2021 6.93042C16.9385 7.66732 17.3541 8.6653 17.3585 9.70703V17.5339H13.9386V11.2468C13.9491 10.9423 13.8982 10.639 13.7891 10.3545C13.6799 10.07 13.5147 9.81021 13.3032 9.59082C13.0918 9.37143 12.8383 9.19669 12.558 9.07715C12.2777 8.9576 11.9762 8.89578 11.6715 8.89502C11.0336 8.88846 10.4182 9.13019 9.9552 9.56909C9.49223 10.008 9.21803 10.6095 9.19055 11.2468V17.5349H5.76855L5.76953 5.8999Z" fill="#28865F"/>
</svg>
