<svg width="20" height="16" viewBox="0 0 20 16" fill="none" xmlns="http://www.w3.org/2000/svg">
<path fill-rule="evenodd" clip-rule="evenodd" d="M9.39697 4.76947C9.23125 3.91449 9.34857 3.02885 9.7312 2.24652C10.1138 1.46419 10.7409 0.827853 11.5176 0.433774C12.2942 0.0396945 13.1781 -0.090717 14.0354 0.0624358C14.8927 0.215589 15.6768 0.64405 16.2689 1.28265C17.104 1.03288 17.9033 0.676222 18.647 0.221615C18.3213 1.13921 17.6987 1.92177 16.8779 2.44549C17.6286 2.35382 18.3611 2.14956 19.0509 1.83954C18.6437 2.64692 17.9883 3.30249 17.1809 3.70965C17.8379 12.8567 7.981 18.4146 0 13.8666C0 13.8666 3.94189 14.0666 5.60889 12.1486C4.79083 12.1403 3.99678 11.8711 3.34229 11.3803C2.68779 10.8895 2.20708 10.2026 1.96997 9.41961C2.56643 9.62268 3.21833 9.58675 3.78894 9.31952C2.91566 9.12392 2.1349 8.63714 1.57483 7.93914C1.01476 7.24115 0.708645 6.37337 0.706909 5.47845C0.979205 5.68119 1.29014 5.82623 1.62048 5.90448C1.95083 5.98272 2.29362 5.99259 2.62793 5.93353C1.75786 5.41057 1.1276 4.56723 0.872559 3.58465C0.617518 2.60207 0.758033 1.55876 1.26392 0.678647C1.26392 0.678647 4.5989 4.92366 9.3999 4.77166L9.39697 4.76947Z" fill="#28865F"/>
</svg>
